<svg width="16" height="20" viewBox="0 0 16 20" fill="none" xmlns="http://www.w3.org/2000/svg">
<path d="M6.84961 8.1001H11.5371" stroke="#F25800" style="stroke:#F25800;stroke:color(display-p3 0.9490 0.3451 0.0000);stroke-opacity:1;" stroke-width="1.2" stroke-miterlimit="10" stroke-linecap="round" stroke-linejoin="round"/>
<circle cx="3.72461" cy="8.1001" r="0.78125" fill="#F25800" style="fill:#F25800;fill:color(display-p3 0.9490 0.3451 0.0000);fill-opacity:1;"/>
<path d="M6.84961 11.2251H11.5371" stroke="#F25800" style="stroke:#F25800;stroke:color(display-p3 0.9490 0.3451 0.0000);stroke-opacity:1;" stroke-width="1.2" stroke-miterlimit="10" stroke-linecap="round" stroke-linejoin="round"/>
<circle cx="3.72461" cy="11.2251" r="0.78125" fill="#F25800" style="fill:#F25800;fill:color(display-p3 0.9490 0.3451 0.0000);fill-opacity:1;"/>
<path d="M6.84961 14.3501H11.5371" stroke="#F25800" style="stroke:#F25800;stroke:color(display-p3 0.9490 0.3451 0.0000);stroke-opacity:1;" stroke-width="1.2" stroke-miterlimit="10" stroke-linecap="round" stroke-linejoin="round"/>
<circle cx="3.72461" cy="14.3501" r="0.78125" fill="#F25800" style="fill:#F25800;fill:color(display-p3 0.9490 0.3451 0.0000);fill-opacity:1;"/>
<path d="M9.97461 2.1626C9.97461 3.02553 9.27504 3.7251 8.41211 3.7251H6.84961C5.98668 3.7251 5.28711 3.02553 5.28711 2.1626C5.28711 1.29967 5.98668 0.600098 6.84961 0.600098H8.41211C9.27504 0.600098 9.97461 1.29967 9.97461 2.1626Z" stroke="#F25800" style="stroke:#F25800;stroke:color(display-p3 0.9490 0.3451 0.0000);stroke-opacity:1;" stroke-width="1.2" stroke-miterlimit="10" stroke-linecap="round" stroke-linejoin="round"/>
<path d="M5.28711 2.1626H2.16211C1.29918 2.1626 0.599609 2.86217 0.599609 3.7251V17.4751C0.599609 18.338 1.29918 19.0376 2.16211 19.0376H13.0996C13.9625 19.0376 14.6621 18.338 14.6621 17.4751V3.7251C14.6621 2.86217 13.9625 2.1626 13.0996 2.1626H10.0432" stroke="#F25800" style="stroke:#F25800;stroke:color(display-p3 0.9490 0.3451 0.0000);stroke-opacity:1;" stroke-width="1.2" stroke-miterlimit="10" stroke-linecap="round" stroke-linejoin="round"/>
</svg>
