<svg width="30" height="30" viewBox="0 0 30 30" fill="none" xmlns="http://www.w3.org/2000/svg">
<g clip-path="url(#clip0_1119_5159)">
<path d="M15.0006 30C23.2845 30 30 23.2845 30 15.0006C30 6.71667 23.2845 0.0012207 15.0006 0.0012207C6.71667 0.0012207 0.0012207 6.71667 0.0012207 15.0006C0.0012207 23.2845 6.71667 30 15.0006 30Z" fill="white" style="fill:white;fill-opacity:1;"/>
<path d="M29.1426 9.99878H19.9006C20.3021 13.203 20.3045 16.7336 19.9084 19.9419H29.1623C29.7026 18.3941 29.9995 16.732 29.9995 15.0002C29.9998 13.2457 29.6959 11.5631 29.1426 9.99878Z" fill="#EFECEC" style="fill:#EFECEC;fill:color(display-p3 0.9373 0.9255 0.9255);fill-opacity:1;"/>
<path d="M19.9007 9.99868H29.1425C29.1411 9.99393 29.1396 9.98994 29.1377 9.98563C27.2181 4.57267 22.2799 0.590172 16.3468 0.0615234C18.643 1.32009 19.3137 5.3076 19.9007 9.99868Z" fill="#429945" style="fill:#429945;fill:color(display-p3 0.2588 0.6000 0.2706);fill-opacity:1;"/>
<path d="M16.3473 29.9378C22.291 29.4082 27.2361 25.412 29.1483 19.9845C29.1533 19.9701 29.1576 19.9558 29.1628 19.9419H19.9087C19.3263 24.6584 18.6527 28.674 16.3473 29.9378Z" fill="#0B0B0B" style="fill:#0B0B0B;fill:color(display-p3 0.0431 0.0431 0.0431);fill-opacity:1;"/>
<path d="M0 15C0 16.732 0.297479 18.3939 0.837211 19.9416H20.6805C21.077 16.7331 21.0742 13.2028 20.6732 9.99854H0.857161C0.303876 11.5629 0 13.2455 0 15Z" fill="#EFEFEF" style="fill:#EFEFEF;fill:color(display-p3 0.9373 0.9373 0.9373);fill-opacity:1;"/>
<path d="M0.861806 9.98567C0.860412 9.98991 0.858956 9.99396 0.857056 9.99871H20.6732C20.0858 5.30757 18.6429 1.32013 16.347 0.0615605C15.9029 0.0222302 15.4539 7.2187e-10 14.9996 7.2187e-10C8.47441 -6.33332e-05 2.92541 4.16737 0.861806 9.98567Z" fill="#49A948" style="fill:#49A948;fill:color(display-p3 0.2863 0.6627 0.2824);fill-opacity:1;"/>
<path d="M20.6805 19.9417H0.837158C0.842162 19.9556 0.846848 19.9698 0.851598 19.9843C2.90697 25.8175 8.46395 29.9996 14.9996 29.9996C15.4539 29.9996 15.903 29.9774 16.347 29.9376C18.6527 28.6738 20.0981 24.6582 20.6805 19.9417Z" fill="#151515" style="fill:#151515;fill:color(display-p3 0.0824 0.0824 0.0824);fill-opacity:1;"/>
<path d="M0 15C0 21.2439 3.81669 26.5956 9.24371 28.8534V1.14624C3.81669 3.40359 0 8.7553 0 15Z" fill="#E73B36" style="fill:#E73B36;fill:color(display-p3 0.9059 0.2314 0.2118);fill-opacity:1;"/>
</g>
<defs>
<clipPath id="clip0_1119_5159">
<rect width="30" height="30" fill="white" style="fill:white;fill-opacity:1;"/>
</clipPath>
</defs>
</svg>
