<svg width="19" height="19" viewBox="0 0 19 19" fill="none" xmlns="http://www.w3.org/2000/svg">
<path d="M7.80013 7.6262C8.10389 7.6262 8.35013 7.37996 8.35013 7.0762C8.35013 6.77245 8.10389 6.5262 7.80013 6.5262V7.0762V7.6262ZM1.1543 7.0762V7.6262H7.80013V7.0762V6.5262H1.1543V7.0762Z" fill="#151B1E" style="fill:#151B1E;fill:color(display-p3 0.0824 0.1059 0.1176);fill-opacity:1;"/>
<path d="M7.19588 17.9491H3.55005C1.8932 17.9491 0.550049 16.606 0.550049 14.9491V5.24081C0.550049 3.58396 1.89319 2.24081 3.55005 2.24081H14.4667C16.1236 2.24081 17.4667 3.58396 17.4667 5.24081V7.67831" stroke="#151B1E" style="stroke:#151B1E;stroke:color(display-p3 0.0824 0.1059 0.1176);stroke-opacity:1;" stroke-width="1.1" stroke-linecap="round"/>
<path d="M4.7793 2.2416V0.549988" stroke="#151B1E" style="stroke:#151B1E;stroke:color(display-p3 0.0824 0.1059 0.1176);stroke-opacity:1;" stroke-width="1.1" stroke-linecap="round"/>
<path d="M12.6335 2.2416V0.549988" stroke="#151B1E" style="stroke:#151B1E;stroke:color(display-p3 0.0824 0.1059 0.1176);stroke-opacity:1;" stroke-width="1.1" stroke-linecap="round"/>
<path d="M12.7585 8.34866C15.4578 8.34866 17.6462 10.5371 17.6462 13.2364C17.6462 15.9356 15.4578 18.1241 12.7585 18.1241C10.0593 18.1241 7.87085 15.9356 7.87085 13.2364C7.87085 10.5371 10.0593 8.34866 12.7585 8.34866Z" stroke="#151B1E" style="stroke:#151B1E;stroke:color(display-p3 0.0824 0.1059 0.1176);stroke-opacity:1;" stroke-width="1.1"/>
<path d="M12.6387 11.7858V13.6522C12.6387 13.7733 12.6826 13.8903 12.7624 13.9814L13.4845 14.8068" stroke="#151B1E" style="stroke:#151B1E;stroke:color(display-p3 0.0824 0.1059 0.1176);stroke-opacity:1;" stroke-width="1.1" stroke-linecap="round"/>
</svg>
