<svg width="18" height="18" viewBox="0 0 18 18" fill="none" xmlns="http://www.w3.org/2000/svg">
<path d="M7.38541 12.3125H8.61456M3.69791 12.3125H4.92706M7.38541 8.62497H8.61456M11.08 8.62497H12.3092M3.69791 8.62497H4.92706M0.625 5.54163H15.3821M0.625 5.54163V4.31959C0.625 2.95797 1.72881 1.85413 3.09044 1.85413H4.3125M0.625 5.54163V12.9095C0.625 14.2712 1.72881 15.375 3.09044 15.375H9.53744M15.3821 5.54163V4.31959C15.3821 2.95797 14.2783 1.85413 12.9167 1.85413H11.6946M15.3821 5.54163V9.35635M11.6946 1.85413H4.3125M11.6946 1.85413V3.69788M11.6946 1.85413V0.624969M4.3125 1.85413V3.69788M4.3125 1.85413V0.624969" stroke="#151B1E" style="stroke:#151B1E;stroke:color(display-p3 0.0824 0.1059 0.1176);stroke-opacity:1;" stroke-miterlimit="10" stroke-linecap="round"/>
<path d="M14.002 11V14M14.002 17V14M14.002 14H17H11" stroke="#151B1E" style="stroke:#151B1E;stroke:color(display-p3 0.0824 0.1059 0.1176);stroke-opacity:1;" stroke-miterlimit="10" stroke-linecap="round" stroke-linejoin="round"/>
</svg>
