<svg width="20" height="20" viewBox="0 0 20 20" fill="none" xmlns="http://www.w3.org/2000/svg">
<g clip-path="url(#clip0_1398_5755)">
<path d="M8.43084 19.414C9.29739 19.414 9.99986 18.7116 9.99986 17.845C9.99986 16.9785 9.29739 16.276 8.43084 16.276C7.56429 16.276 6.86182 16.9785 6.86182 17.845C6.86182 18.7116 7.56429 19.414 8.43084 19.414Z" stroke="white" style="stroke:white;stroke-opacity:1;" stroke-width="1.2" stroke-miterlimit="10" stroke-linecap="round" stroke-linejoin="round"/>
<path d="M15.3346 19.414C16.2012 19.414 16.9037 18.7116 16.9037 17.845C16.9037 16.9785 16.2012 16.276 15.3346 16.276C14.4681 16.276 13.7656 16.9785 13.7656 17.845C13.7656 18.7116 14.4681 19.414 15.3346 19.414Z" stroke="white" style="stroke:white;stroke-opacity:1;" stroke-width="1.2" stroke-miterlimit="10" stroke-linecap="round" stroke-linejoin="round"/>
<path d="M15.3346 16.276H7.8034C6.93699 16.276 6.23438 15.5734 6.23438 14.707C6.23438 13.8406 6.93699 13.138 7.8034 13.138" stroke="white" style="stroke:white;stroke-opacity:1;" stroke-width="1.2" stroke-miterlimit="10" stroke-linecap="round" stroke-linejoin="round"/>
<path d="M19.4141 5.60675H4.35156C4.35156 5.60675 5.26379 9.25597 5.81828 11.4742C6.06273 12.452 6.94137 13.138 7.9493 13.138C10.0781 13.138 13.6875 13.138 15.8163 13.138C16.8243 13.138 17.7029 12.452 17.9473 11.4742C18.5018 9.25597 19.4141 5.60675 19.4141 5.60675Z" stroke="white" style="stroke:white;stroke-opacity:1;" stroke-width="1.2" stroke-miterlimit="10" stroke-linecap="round" stroke-linejoin="round"/>
<path d="M4.35156 5.60676C4.35156 5.60676 4.0252 4.30102 3.70512 3.02133C3.34738 1.59012 2.06145 0.585938 0.585938 0.585938" stroke="white" style="stroke:white;stroke-opacity:1;" stroke-width="1.2" stroke-miterlimit="10" stroke-linecap="round" stroke-linejoin="round"/>
</g>
<defs>
<clipPath id="clip0_1398_5755">
<rect width="20" height="20" fill="white" style="fill:white;fill-opacity:1;"/>
</clipPath>
</defs>
</svg>
