<svg width="20" height="20" viewBox="0 0 20 20" fill="none" xmlns="http://www.w3.org/2000/svg">
<path fill-rule="evenodd" clip-rule="evenodd" d="M10 20C4.47803 20 0 15.522 0 10C0 4.47803 4.47803 0 10 0C15.522 0 20 4.47803 20 10C20 15.522 15.522 20 10 20ZM8.62417 11.7595L14.6251 5.75866C14.8328 5.55094 15.1737 5.55307 15.3793 5.75866L16.0598 6.43913C16.2654 6.64472 16.2654 6.9878 16.0598 7.19331L9.01181 14.2413C8.88575 14.3674 8.70866 14.417 8.54276 14.3885C8.42921 14.3743 8.31968 14.3244 8.23417 14.239L3.94087 9.94567C3.73567 9.74047 3.73323 9.39913 3.94087 9.19142L4.62134 8.51095C4.82906 8.30331 5.16787 8.30331 5.37559 8.51095L8.62417 11.7595Z" fill="white" style="fill:white;fill-opacity:1;"/>
</svg>
