<svg width="19" height="24" viewBox="0 0 19 24" fill="none" xmlns="http://www.w3.org/2000/svg">
<path d="M8.25 9.75H13.875" stroke="#151B1E" style="stroke:#151B1E;stroke:color(display-p3 0.0824 0.1059 0.1176);stroke-opacity:1;" stroke-width="1.5" stroke-miterlimit="10" stroke-linecap="round" stroke-linejoin="round"/>
<circle cx="4.5" cy="9.75" r="0.9375" fill="#151B1E" style="fill:#151B1E;fill:color(display-p3 0.0824 0.1059 0.1176);fill-opacity:1;"/>
<path d="M8.25 13.5H13.875" stroke="#151B1E" style="stroke:#151B1E;stroke:color(display-p3 0.0824 0.1059 0.1176);stroke-opacity:1;" stroke-width="1.5" stroke-miterlimit="10" stroke-linecap="round" stroke-linejoin="round"/>
<circle cx="4.5" cy="13.5" r="0.9375" fill="#151B1E" style="fill:#151B1E;fill:color(display-p3 0.0824 0.1059 0.1176);fill-opacity:1;"/>
<path d="M8.25 17.25H13.875" stroke="#151B1E" style="stroke:#151B1E;stroke:color(display-p3 0.0824 0.1059 0.1176);stroke-opacity:1;" stroke-width="1.5" stroke-miterlimit="10" stroke-linecap="round" stroke-linejoin="round"/>
<circle cx="4.5" cy="17.25" r="0.9375" fill="#151B1E" style="fill:#151B1E;fill:color(display-p3 0.0824 0.1059 0.1176);fill-opacity:1;"/>
<path d="M12 2.625C12 3.66052 11.1605 4.5 10.125 4.5H8.25C7.21448 4.5 6.375 3.66052 6.375 2.625C6.375 1.58948 7.21448 0.75 8.25 0.75H10.125C11.1605 0.75 12 1.58948 12 2.625Z" stroke="#151B1E" style="stroke:#151B1E;stroke:color(display-p3 0.0824 0.1059 0.1176);stroke-opacity:1;" stroke-width="1.5" stroke-miterlimit="10" stroke-linecap="round" stroke-linejoin="round"/>
<path d="M6.375 2.625H2.625C1.58948 2.625 0.75 3.46448 0.75 4.5V21C0.75 22.0355 1.58948 22.875 2.625 22.875H15.75C16.7855 22.875 17.625 22.0355 17.625 21V4.5C17.625 3.46448 16.7855 2.625 15.75 2.625H12.0823" stroke="#151B1E" style="stroke:#151B1E;stroke:color(display-p3 0.0824 0.1059 0.1176);stroke-opacity:1;" stroke-width="1.5" stroke-miterlimit="10" stroke-linecap="round" stroke-linejoin="round"/>
</svg>
