<svg width="19" height="19" viewBox="0 0 19 19" fill="none" xmlns="http://www.w3.org/2000/svg">
<path d="M7.80013 7.62617C8.10389 7.62617 8.35013 7.37993 8.35013 7.07617C8.35013 6.77242 8.10389 6.52617 7.80013 6.52617V7.07617V7.62617ZM1.1543 7.07617V7.62617H7.80013V7.07617V6.52617H1.1543V7.07617Z" fill="#151B1E" style="fill:#151B1E;fill:color(display-p3 0.0824 0.1059 0.1176);fill-opacity:1;"/>
<path d="M7.19564 17.9493H3.54981C1.89295 17.9493 0.549805 16.6062 0.549805 14.9493V5.24096C0.549805 3.58411 1.89295 2.24097 3.5498 2.24097H14.4665C16.1233 2.24097 17.4665 3.58411 17.4665 5.24097V7.67847" stroke="#151B1E" style="stroke:#151B1E;stroke:color(display-p3 0.0824 0.1059 0.1176);stroke-opacity:1;" stroke-width="1.1" stroke-linecap="round"/>
<path d="M4.7793 2.24166V0.550049" stroke="#151B1E" style="stroke:#151B1E;stroke:color(display-p3 0.0824 0.1059 0.1176);stroke-opacity:1;" stroke-width="1.1" stroke-linecap="round"/>
<path d="M12.6328 2.24166V0.550049" stroke="#151B1E" style="stroke:#151B1E;stroke:color(display-p3 0.0824 0.1059 0.1176);stroke-opacity:1;" stroke-width="1.1" stroke-linecap="round"/>
<path d="M12.7578 8.34863C15.4571 8.34863 17.6455 10.537 17.6455 13.2363C17.6455 15.9356 15.4571 18.124 12.7578 18.124C10.0585 18.124 7.87012 15.9356 7.87012 13.2363C7.87012 10.537 10.0585 8.34863 12.7578 8.34863Z" stroke="#151B1E" style="stroke:#151B1E;stroke:color(display-p3 0.0824 0.1059 0.1176);stroke-opacity:1;" stroke-width="1.1"/>
<path d="M12.6377 11.7859V13.6522C12.6377 13.7733 12.6816 13.8903 12.7614 13.9815L13.4835 14.8068" stroke="#151B1E" style="stroke:#151B1E;stroke:color(display-p3 0.0824 0.1059 0.1176);stroke-opacity:1;" stroke-width="1.1" stroke-linecap="round"/>
</svg>
