<svg width="16" height="16" viewBox="0 0 16 16" fill="none" xmlns="http://www.w3.org/2000/svg">
<path d="M13.9891 5.71385H2.01123V4.52157C2.01123 3.75378 2.63364 3.13135 3.40145 3.13135H12.5989C13.3667 3.13135 13.9891 3.75375 13.9891 4.52157V5.71385H13.9891Z" stroke="#EF3E41" style="stroke:#EF3E41;stroke:color(display-p3 0.9375 0.2434 0.2550);stroke-opacity:1;" stroke-miterlimit="10" stroke-linecap="round" stroke-linejoin="round"/>
<path d="M10.5961 3.13141H5.40381V2.20766C5.40381 1.33356 6.1124 0.625 6.98646 0.625H9.0135C9.88759 0.625 10.5962 1.33359 10.5962 2.20766V3.13141H10.5961Z" stroke="#EF3E41" style="stroke:#EF3E41;stroke:color(display-p3 0.9375 0.2434 0.2550);stroke-opacity:1;" stroke-miterlimit="10" stroke-linecap="round" stroke-linejoin="round"/>
<path d="M6.56396 8.57245V12.0512" stroke="#EF3E41" style="stroke:#EF3E41;stroke:color(display-p3 0.9375 0.2434 0.2550);stroke-opacity:1;" stroke-miterlimit="10" stroke-linecap="round" stroke-linejoin="round"/>
<path d="M9.43604 8.57245V12.0512" stroke="#EF3E41" style="stroke:#EF3E41;stroke:color(display-p3 0.9375 0.2434 0.2550);stroke-opacity:1;" stroke-miterlimit="10" stroke-linecap="round" stroke-linejoin="round"/>
<path d="M13.1486 5.71387L12.8364 10.5199L12.6331 13.6449C12.5578 14.6199 11.7443 15.375 10.7638 15.375H5.23686C4.24852 15.375 3.42986 14.6078 3.3658 13.6216L2.85205 5.71387H13.1486Z" stroke="#EF3E41" style="stroke:#EF3E41;stroke:color(display-p3 0.9375 0.2434 0.2550);stroke-opacity:1;" stroke-miterlimit="10" stroke-linecap="round" stroke-linejoin="round"/>
</svg>
