<svg width="114" height="20" viewBox="0 0 114 20" fill="none" xmlns="http://www.w3.org/2000/svg">
<path d="M0 19.6305V1.15764H7.41379C9.17077 1.15764 10.6814 1.5353 11.9458 2.29064C13.2266 3.02956 14.2118 4.08867 14.9015 5.46798C15.6076 6.83087 15.9606 8.4647 15.9606 10.3695C15.9606 12.2578 15.6076 13.8998 14.9015 15.2956C14.2118 16.6749 13.2266 17.7422 11.9458 18.4975C10.6814 19.2529 9.17077 19.6305 7.41379 19.6305H0ZM4.28571 16.0837H7.41379C8.69458 16.0837 9.69622 15.5911 10.4187 14.6059C11.1576 13.6043 11.5271 12.1921 11.5271 10.3695C11.5271 8.56322 11.1576 7.16749 10.4187 6.18227C9.69622 5.19704 8.69458 4.70443 7.41379 4.70443H4.28571V16.0837Z" fill="#151B1E" style="fill:#151B1E;fill:color(display-p3 0.0824 0.1059 0.1176);fill-opacity:1;"/>
<path d="M20.4582 4.06404C19.8178 4.06404 19.2759 3.87521 18.8325 3.49754C18.4056 3.11987 18.1922 2.62726 18.1922 2.0197C18.1922 1.42857 18.4056 0.944171 18.8325 0.566502C19.2759 0.188834 19.8178 0 20.4582 0C21.0821 0 21.6076 0.188834 22.0345 0.566502C22.4779 0.944171 22.6995 1.42857 22.6995 2.0197C22.6995 2.62726 22.4779 3.11987 22.0345 3.49754C21.6076 3.87521 21.0821 4.06404 20.4582 4.06404ZM18.4631 19.6305V5.59113H22.4532V19.6305H18.4631Z" fill="#151B1E" style="fill:#151B1E;fill:color(display-p3 0.0824 0.1059 0.1176);fill-opacity:1;"/>
<path d="M24.9804 19.6305V11.3793C24.9804 10.1149 25.2349 9.02299 25.7439 8.10345C26.2694 7.18391 27.0083 6.47783 27.9607 5.98522C28.913 5.47619 30.0378 5.22167 31.3351 5.22167C32.6323 5.22167 33.7571 5.47619 34.7094 5.98522C35.6618 6.47783 36.3925 7.18391 36.9016 8.10345C37.427 9.02299 37.6897 10.1149 37.6897 11.3793V19.6305H33.6996V11.4286C33.6996 10.5419 33.4779 9.86043 33.0346 9.38424C32.6076 8.90805 32.0411 8.66995 31.3351 8.66995C30.6454 8.66995 30.0789 8.90805 29.6355 9.38424C29.1922 9.86043 28.9705 10.5419 28.9705 11.4286V19.6305H24.9804Z" fill="#151B1E" style="fill:#151B1E;fill:color(display-p3 0.0824 0.1059 0.1176);fill-opacity:1;"/>
<path d="M46.7801 20C45.3516 20 44.1118 19.7044 43.0609 19.1133C42.01 18.5057 41.189 17.6519 40.5979 16.5517C40.0232 15.4351 39.7358 14.1215 39.7358 12.6108C39.7358 11.1002 40.0232 9.79475 40.5979 8.69458C41.1726 7.59442 41.9772 6.74056 43.0117 6.133C44.0626 5.52545 45.2941 5.22167 46.7062 5.22167C48.1676 5.22167 49.4074 5.55008 50.4254 6.2069C51.4599 6.86371 52.2317 7.81609 52.7407 9.06404C53.2662 10.312 53.4878 11.8145 53.4057 13.5714H43.7506C43.8819 14.6223 44.2268 15.4433 44.7851 16.0345C45.3433 16.6256 46.0658 16.9212 46.9525 16.9212C47.675 16.9212 48.2662 16.7488 48.7259 16.4039C49.1857 16.0427 49.4731 15.6076 49.588 15.0985H53.3072C53.143 16.1166 52.7571 16.9951 52.1496 17.734C51.5585 18.4565 50.8031 19.0148 49.8836 19.4089C48.964 19.803 47.9296 20 46.7801 20ZM46.7309 8.27586C45.9263 8.27586 45.2612 8.53859 44.7358 9.06404C44.2103 9.57307 43.8819 10.2627 43.7506 11.133H49.4649C49.3992 10.0985 49.0954 9.36782 48.5535 8.94089C48.0117 8.49754 47.4041 8.27586 46.7309 8.27586Z" fill="#151B1E" style="fill:#151B1E;fill:color(display-p3 0.0824 0.1059 0.1176);fill-opacity:1;"/>
<path d="M55.6592 19.6305V1.15764H67.9499V4.87685H59.945V8.867H67.4819V12.4877H59.945V19.6305H55.6592Z" fill="#151B1E" style="fill:#151B1E;fill:color(display-p3 0.0824 0.1059 0.1176);fill-opacity:1;"/>
<path d="M74.1179 19.6305C72.9685 19.6305 72.0407 19.2857 71.3347 18.5961C70.645 17.89 70.3002 16.9622 70.3002 15.8128V1.15764H74.2903V15.1232C74.2903 15.4351 74.3888 15.6897 74.5859 15.8867C74.7829 16.0837 75.0292 16.1823 75.3248 16.1823H76.0884V19.6305H74.1179Z" fill="#151B1E" style="fill:#151B1E;fill:color(display-p3 0.0824 0.1059 0.1176);fill-opacity:1;"/>
<path d="M84.8118 20C83.4161 20 82.1763 19.688 81.0926 19.064C80.0088 18.4401 79.155 17.578 78.531 16.4778C77.9235 15.3612 77.6197 14.0887 77.6197 12.6601C77.6197 11.1987 77.9235 9.90969 78.531 8.7931C79.155 7.67652 80.0088 6.80624 81.0926 6.18227C82.1763 5.54187 83.4161 5.22167 84.8118 5.22167C86.224 5.22167 87.4637 5.54187 88.531 6.18227C89.6148 6.80624 90.4604 7.67652 91.068 8.7931C91.6919 9.90969 92.0039 11.1987 92.0039 12.6601C92.0039 14.0887 91.6919 15.3612 91.068 16.4778C90.4604 17.578 89.6148 18.4401 88.531 19.064C87.4637 19.688 86.224 20 84.8118 20ZM84.8118 16.5517C85.7313 16.5517 86.4785 16.1905 87.0532 15.468C87.6443 14.7455 87.9399 13.8095 87.9399 12.6601C87.9399 11.4778 87.6443 10.5172 87.0532 9.77833C86.4785 9.03941 85.7313 8.66995 84.8118 8.66995C83.8923 8.66995 83.1369 9.03941 82.5458 9.77833C81.9711 10.5172 81.6837 11.4778 81.6837 12.6601C81.6837 13.8095 81.9711 14.7455 82.5458 15.468C83.1369 16.1905 83.8923 16.5517 84.8118 16.5517Z" fill="#151B1E" style="fill:#151B1E;fill:color(display-p3 0.0824 0.1059 0.1176);fill-opacity:1;"/>
<path d="M98.7475 20C98.0414 20 97.4831 19.7947 97.0726 19.3842C96.6621 18.9573 96.2926 18.202 95.9642 17.1182L92.5406 5.59113H96.6293L98.8953 14.7291L100.693 7.73399C100.923 6.81445 101.219 6.16585 101.58 5.78818C101.958 5.41051 102.467 5.22167 103.107 5.22167C103.731 5.22167 104.224 5.41051 104.585 5.78818C104.963 6.16585 105.266 6.81445 105.496 7.73399L107.344 14.803L109.683 5.59113H113.624L110.25 17.1182C109.938 18.202 109.577 18.9573 109.166 19.3842C108.772 19.7947 108.214 20 107.491 20C106.736 20 106.153 19.7947 105.743 19.3842C105.348 18.9573 104.995 18.2102 104.683 17.1429L103.082 11.5271L101.481 17.1429C101.169 18.2102 100.816 18.9573 100.422 19.3842C100.028 19.7947 99.47 20 98.7475 20Z" fill="#151B1E" style="fill:#151B1E;fill:color(display-p3 0.0824 0.1059 0.1176);fill-opacity:1;"/>
</svg>
