<svg xmlns="http://www.w3.org/2000/svg" width="20" height="20" viewBox="0 0 20 20" fill="none">
  <g clip-path="url(#clip0_125_8909)">
    <path
      d="M10.0001 0.585945C10.693 0.585945 11.2553 1.14837 11.2553 1.84118C11.2553 2.53391 10.693 3.09637 10.0001 3.09637C9.30749 3.09637 8.74487 2.53391 8.74487 1.84118C8.74487 1.14837 9.30749 0.585945 10.0001 0.585945Z"
      stroke="#151B1E"
      stroke-miterlimit="10"
      stroke-linecap="round"
      stroke-linejoin="round"
    />
    <path
      d="M18.1588 11.2552H1.84106C1.84106 6.75218 5.49716 3.09632 9.99989 3.09632C14.503 3.09632 18.1588 6.75218 18.1588 11.2552Z"
      stroke="#151B1E"
      stroke-miterlimit="10"
      stroke-linecap="round"
      stroke-linejoin="round"
    />
    <path
      d="M0.585938 11.2552H19.4141"
      stroke="#151B1E"
      stroke-miterlimit="10"
      stroke-linecap="round"
      stroke-linejoin="round"
    />
    <path
      d="M0.585938 16.9036L3.09637 14.3932V14.3926C3.09637 13.5605 3.42711 12.7625 4.01547 12.1741C4.60387 11.5857 5.40187 11.2552 6.23375 11.2552H8.11719C8.45012 11.2552 8.76957 11.3874 9.00492 11.6228C9.24027 11.8582 9.37238 12.1775 9.37238 12.5104C9.37238 12.8433 9.24027 13.1626 9.00492 13.398C8.76957 13.6333 8.45012 13.7656 8.11719 13.7656H6.23437H10.6276C10.6276 13.7656 11.8649 12.7758 12.7856 12.0393C13.4201 11.5317 14.2084 11.2552 15.0208 11.2552H15.0211C15.3952 11.2552 15.7284 11.4914 15.8521 11.8443C15.9757 12.1971 15.8634 12.5897 15.5712 12.8233C13.7298 14.2964 11.2552 16.2761 11.2552 16.2761L5.60676 16.9036L3.09637 19.4141L0.585938 16.9036Z"
      stroke="#151B1E"
      stroke-miterlimit="10"
      stroke-linecap="round"
      stroke-linejoin="round"
    />
  </g>
  <defs>
    <clipPath id="clip0_125_8909">
      <rect width="20" height="20" fill="white" />
    </clipPath>
  </defs>
</svg>