<svg width="17" height="17" viewBox="0 0 17 17" fill="none" xmlns="http://www.w3.org/2000/svg">
<path d="M13.1567 2.55056C13.1567 3.68306 12.2206 4.60113 11.0658 4.60113C9.91102 4.60113 8.9749 3.68306 8.9749 2.55056M13.1567 2.55056C13.1567 1.41807 12.2206 0.5 11.0658 0.5C9.91102 0.5 8.9749 1.41807 8.9749 2.55056M13.1567 2.55056H16.4473M8.9749 2.55056H0.552538M3.79063 8.4998C3.79063 9.6323 4.72675 10.5504 5.88152 10.5504C7.03628 10.5504 7.97241 9.6323 7.97241 8.4998M3.79063 8.4998C3.79063 7.36731 4.72675 6.44924 5.88152 6.44924C7.03628 6.44924 7.97241 7.36731 7.97241 8.4998M3.79063 8.4998H0.5M7.97241 8.4998H16.3948M13.2094 14.4494C13.2094 13.3169 12.2732 12.3989 11.1185 12.3989C9.96372 12.3989 9.02759 13.3169 9.02759 14.4494M13.2094 14.4494C13.2094 15.5819 12.2732 16.5 11.1185 16.5C9.96372 16.5 9.02759 15.5819 9.02759 14.4494M13.2094 14.4494H16.5M9.02759 14.4494H0.605229" stroke="#151B1E" style="stroke:#151B1E;stroke:color(display-p3 0.0824 0.1059 0.1176);stroke-opacity:1;" stroke-miterlimit="10" stroke-linecap="round"/>
</svg>
