<svg width="15" height="21" viewBox="0 0 15 21" fill="none" xmlns="http://www.w3.org/2000/svg">
<path d="M14.8428 19.8225L10.0278 12.87L14.0553 7.98004C14.1465 7.86955 14.2041 7.73526 14.2214 7.59305C14.2387 7.45083 14.2148 7.30664 14.1528 7.17754C14.092 7.04991 13.9964 6.94206 13.8769 6.86642C13.7575 6.79078 13.6191 6.75044 13.4778 6.75004H9.50276L12.6303 1.11754C12.6961 1.00352 12.7307 0.874188 12.7307 0.742536C12.7307 0.610883 12.6961 0.48155 12.6303 0.367536C12.5632 0.254478 12.4677 0.161018 12.3532 0.096519C12.2386 0.0320204 12.1092 -0.00125166 11.9778 3.60042e-05H6.72776C6.59208 0.000398037 6.45904 0.0375586 6.34282 0.107559C6.22659 0.177559 6.13153 0.277777 6.06776 0.397536L4.02026 4.19254L1.34276 0.322536C1.22503 0.170659 1.05349 0.0697679 0.863535 0.0406784C0.673584 0.011589 0.479713 0.056521 0.321924 0.166204C0.164135 0.275886 0.0544664 0.441951 0.0155461 0.630134C-0.0233742 0.818317 0.0114231 1.01426 0.112759 1.17754L3.22526 5.67754L0.817759 10.1775C0.763889 10.2906 0.739172 10.4153 0.745859 10.5403C0.752546 10.6653 0.790426 10.7867 0.856045 10.8933C0.921663 10.9999 1.01293 11.0884 1.12153 11.1507C1.23012 11.2131 1.35259 11.2472 1.47776 11.25H4.96526L2.22776 20.0325C2.17563 20.1989 2.18312 20.3783 2.24893 20.5398C2.31474 20.7013 2.43476 20.8348 2.58835 20.9173C2.74194 20.9999 2.91949 21.0264 3.09049 20.9922C3.26148 20.958 3.41522 20.8653 3.52526 20.73L9.00776 14.07L13.5828 20.6775C13.6963 20.8404 13.8698 20.9516 14.0652 20.9868C14.2607 21.0219 14.4621 20.9781 14.6253 20.865C14.7083 20.8111 14.7799 20.7413 14.8358 20.6596C14.8917 20.578 14.9309 20.486 14.9512 20.3891C14.9714 20.2922 14.9722 20.1922 14.9536 20.095C14.935 19.9977 14.8973 19.9051 14.8428 19.8225ZM2.73026 9.75004L4.18526 7.05754L6.05276 9.75004H2.73026ZM4.80776 16.845L6.72776 10.7175L8.17526 12.81L4.80776 16.845ZM4.98026 5.59504L7.17776 1.50004H10.7028L7.57526 7.13254C7.50943 7.24655 7.47478 7.37588 7.47478 7.50754C7.47478 7.63919 7.50943 7.76852 7.57526 7.88254C7.64228 7.99559 7.73784 8.08905 7.85236 8.15355C7.96688 8.21805 8.09633 8.25132 8.22776 8.25004H11.8878L9.14276 11.5875L4.98026 5.59504Z" fill="#151B1E" style="fill:#151B1E;fill:color(display-p3 0.0824 0.1059 0.1176);fill-opacity:1;"/>
</svg>
