<svg width="24" height="24" viewBox="0 0 24 24" fill="none" xmlns="http://www.w3.org/2000/svg">
<path fill-rule="evenodd" clip-rule="evenodd" d="M18.5767 9.48004L14.5492 14.37L13.5292 15.57L8.04674 22.23C7.9367 22.3653 7.78296 22.458 7.61197 22.4922C7.44098 22.5264 7.26342 22.4999 7.10983 22.4173C6.95624 22.3348 6.83622 22.2013 6.77041 22.0398C6.7046 21.8783 6.69712 21.6989 6.74924 21.5325L9.48674 12.75H5.99924C5.87407 12.7472 5.75161 12.7131 5.64301 12.6507C5.53442 12.5884 5.44315 12.4999 5.37753 12.3933C5.31191 12.2867 5.27403 12.1653 5.26734 12.0403C5.26066 11.9153 5.28537 11.7906 5.33924 11.6775L7.74674 7.17754L8.54174 5.69254L10.5892 1.89754C10.653 1.77778 10.7481 1.67756 10.8643 1.60756C10.9805 1.53756 11.1136 1.5004 11.2492 1.50004H16.4992C16.6307 1.49875 16.7601 1.53202 16.8746 1.59652C16.9892 1.66102 17.0847 1.75448 17.1517 1.86754C17.2176 1.98155 17.2522 2.11088 17.2522 2.24254C17.2522 2.37419 17.2176 2.50352 17.1517 2.61754L14.0242 8.25004H17.9992C18.1406 8.25044 18.279 8.29078 18.3984 8.36642C18.5178 8.44206 18.6135 8.54991 18.6742 8.67754C18.7363 8.80664 18.7601 8.95083 18.7429 9.09305C18.7256 9.23526 18.6679 9.36955 18.5767 9.48004ZM8.70674 8.55754L7.25174 11.25L10.5742 11.25L11.2492 12.2175L9.32924 18.345L12.6967 14.31L13.6642 13.0875L16.4092 9.75004H12.7492C12.6178 9.75132 12.4884 9.71805 12.3738 9.65355C12.2593 9.58905 12.1638 9.49559 12.0967 9.38254C12.0309 9.26852 11.9963 9.13919 11.9963 9.00754C11.9963 8.87588 12.0309 8.74655 12.0967 8.63254L15.2242 3.00004H11.6992L9.50174 7.09504L8.70674 8.55754Z" fill="#151B1E" style="fill:#151B1E;fill:color(display-p3 0.0824 0.1059 0.1176);fill-opacity:1;"/>
<path d="M10.5742 11.25L11.2492 12.2175C11.2832 12.1016 11.3369 11.9748 11.3217 11.8532C11.3065 11.7316 11.2611 11.6159 11.1901 11.5179C11.1182 11.4208 11.0234 11.345 10.9153 11.298C10.8072 11.251 10.6777 11.25 10.5742 11.25Z" fill="#151B1E" style="fill:#151B1E;fill:color(display-p3 0.0824 0.1059 0.1176);fill-opacity:1;"/>
</svg>
