<svg width="26" height="26" viewBox="0 0 26 26" fill="none" xmlns="http://www.w3.org/2000/svg">
<path d="M24.1029 11.1888C24.1024 11.1883 24.1018 11.1877 24.1013 11.1872L14.3112 1.39746C13.8939 0.97998 13.3391 0.75 12.7489 0.75C12.1588 0.75 11.604 0.979797 11.1865 1.39728L1.40151 11.1821C1.39822 11.1854 1.39492 11.1888 1.39163 11.1921C0.534693 12.054 0.536157 13.4524 1.39584 14.3121C1.7886 14.705 2.30734 14.9326 2.86196 14.9564C2.88448 14.9586 2.90719 14.9597 2.93008 14.9597H3.32028V22.1644C3.32028 23.59 4.48025 24.75 5.90627 24.75H9.73647C10.1247 24.75 10.4396 24.4352 10.4396 24.0469V18.3984C10.4396 17.7479 10.9688 17.2187 11.6193 17.2187H13.8785C14.5291 17.2187 15.0583 17.7479 15.0583 18.3984V24.0469C15.0583 24.4352 15.373 24.75 15.7614 24.75H19.5916C21.0176 24.75 22.1776 23.59 22.1776 22.1644V14.9597H22.5394C23.1294 14.9597 23.6842 14.7299 24.1018 14.3124C24.9624 13.4513 24.9628 12.0505 24.1029 11.1888Z" stroke="#151B1E" style="stroke:#151B1E;stroke:color(display-p3 0.0824 0.1059 0.1176);stroke-opacity:1;" stroke-width="1.5" stroke-miterlimit="10" stroke-linecap="round" stroke-linejoin="round"/>
</svg>
