<svg width="26" height="26" viewBox="0 0 26 26" fill="none" xmlns="http://www.w3.org/2000/svg">
<g clip-path="url(#clip0_125_8676)">
<mask id="mask0_125_8676" style="mask-type:luminance" maskUnits="userSpaceOnUse" x="0" y="0" width="26" height="26">
<path d="M13 26C20.1797 26 26 20.1797 26 13C26 5.8203 20.1797 0 13 0C5.8203 0 0 5.8203 0 13C0 20.1797 5.8203 26 13 26Z" fill="white" style="fill:white;fill-opacity:1;"/>
</mask>
<g mask="url(#mask0_125_8676)">
<path d="M-6.539 0H32.539V26.052H-6.539V0Z" fill="#F89939" style="fill:#F89939;fill:color(display-p3 0.9725 0.6000 0.2235);fill-opacity:1;"/>
</g>
<mask id="mask1_125_8676" style="mask-type:luminance" maskUnits="userSpaceOnUse" x="0" y="0" width="26" height="26">
<path d="M13 26C20.1797 26 26 20.1797 26 13C26 5.8203 20.1797 0 13 0C5.8203 0 0 5.8203 0 13C0 20.1797 5.8203 26 13 26Z" fill="white" style="fill:white;fill-opacity:1;"/>
</mask>
<g mask="url(#mask1_125_8676)">
<path d="M-6.539 8.68402H32.539V17.368H-6.539V8.68402Z" fill="white" style="fill:white;fill-opacity:1;"/>
</g>
<mask id="mask2_125_8676" style="mask-type:luminance" maskUnits="userSpaceOnUse" x="0" y="0" width="26" height="26">
<path d="M13 26C20.1797 26 26 20.1797 26 13C26 5.8203 20.1797 0 13 0C5.8203 0 0 5.8203 0 13C0 20.1797 5.8203 26 13 26Z" fill="white" style="fill:white;fill-opacity:1;"/>
</mask>
<g mask="url(#mask2_125_8676)">
<path d="M-6.539 17.368H32.539V26.052H-6.539V17.368Z" fill="#1E8943" style="fill:#1E8943;fill:color(display-p3 0.1176 0.5373 0.2627);fill-opacity:1;"/>
</g>
<mask id="mask3_125_8676" style="mask-type:luminance" maskUnits="userSpaceOnUse" x="0" y="0" width="26" height="26">
<path d="M13 26C20.1797 26 26 20.1797 26 13C26 5.8203 20.1797 0 13 0C5.8203 0 0 5.8203 0 13C0 20.1797 5.8203 26 13 26Z" fill="white" style="fill:white;fill-opacity:1;"/>
</mask>
<g mask="url(#mask3_125_8676)">
<path d="M13 16.4996C14.9184 16.4996 16.4736 14.9444 16.4736 13.026C16.4736 11.1076 14.9184 9.55243 13 9.55243C11.0816 9.55243 9.5264 11.1076 9.5264 13.026C9.5264 14.9444 11.0816 16.4996 13 16.4996Z" fill="#2A2C7A" style="fill:#2A2C7A;fill:color(display-p3 0.1647 0.1725 0.4784);fill-opacity:1;"/>
</g>
<mask id="mask4_125_8676" style="mask-type:luminance" maskUnits="userSpaceOnUse" x="0" y="0" width="26" height="26">
<path d="M13 26C20.1797 26 26 20.1797 26 13C26 5.8203 20.1797 0 13 0C5.8203 0 0 5.8203 0 13C0 20.1797 5.8203 26 13 26Z" fill="white" style="fill:white;fill-opacity:1;"/>
</mask>
<g mask="url(#mask4_125_8676)">
<path d="M15.3155 11.0583C15.2624 10.9957 15.2072 10.9349 15.1492 10.8768L13.9334 12.24L13.4508 12.6192C13.4724 12.6431 13.4923 12.6685 13.5099 12.6957L14.0009 12.3279L15.6318 11.5064C15.5907 11.4353 15.5469 11.3658 15.5003 11.2984C15.4339 11.3466 15.341 11.3337 15.2907 11.2683C15.2406 11.2029 15.2522 11.1101 15.3155 11.0583Z" fill="white" style="fill:white;fill-opacity:1;"/>
<path d="M12.6232 10.1633C12.5414 10.174 12.4666 10.1175 12.4535 10.0365C12.2902 10.0662 12.1314 10.1085 11.9782 10.1631C12.0079 10.2399 11.9715 10.3267 11.895 10.3583C11.8186 10.3899 11.7314 10.3545 11.6981 10.2792C11.6238 10.3145 11.5513 10.3531 11.4805 10.3941L12.4824 11.921L12.7236 12.485C12.7522 12.4704 12.7819 12.4578 12.8128 12.4478L12.5847 11.8786L12.2133 10.0902L12.786 11.8247L12.873 12.4316C12.9041 12.425 12.9362 12.4213 12.9689 12.4197L12.8958 11.8102L13 9.98657C12.9171 9.98657 12.8353 9.99084 12.7541 9.99734C12.7624 10.0786 12.7048 10.1524 12.6232 10.1633Z" fill="white" style="fill:white;fill-opacity:1;"/>
<path d="M14.7577 10.7352C14.6922 10.6849 14.6793 10.5921 14.7275 10.5257C14.6601 10.479 14.5907 10.4353 14.5195 10.3941L13.6981 12.0251L13.3303 12.5161C13.3574 12.5337 13.3828 12.5536 13.4068 12.5752L13.786 12.0926L15.1491 10.8768C15.0911 10.8188 15.0303 10.7636 14.9677 10.7104C14.9159 10.7738 14.823 10.7854 14.7577 10.7352Z" fill="white" style="fill:white;fill-opacity:1;"/>
<path d="M13.786 13.9594L13.4068 13.4767C13.3829 13.4983 13.3574 13.5182 13.3303 13.5358L13.6981 14.0268L14.5195 15.6578C14.5907 15.6166 14.6601 15.5728 14.7275 15.5262C14.6794 15.4598 14.6923 15.3669 14.7577 15.3166C14.8231 15.2666 14.916 15.2781 14.9677 15.3414C15.0302 15.2882 15.0911 15.2331 15.1492 15.1751L13.786 13.9594Z" fill="white" style="fill:white;fill-opacity:1;"/>
<path d="M14.2158 13.1301L13.6064 13.057C13.6047 13.0897 13.601 13.1218 13.5944 13.153L14.2013 13.24L15.9358 13.8127L14.1474 13.4412L13.5782 13.2131C13.5682 13.2441 13.5556 13.2738 13.541 13.3024L14.105 13.5436L15.6319 14.5454C15.6729 14.4746 15.7115 14.4022 15.7468 14.3279C15.6715 14.2945 15.6361 14.2073 15.6677 14.131C15.6993 14.0545 15.7861 14.018 15.8629 14.0477C15.9175 13.8946 15.9598 13.7357 15.9895 13.5724C15.9085 13.5594 15.852 13.4846 15.8627 13.4028C15.8735 13.3213 15.9473 13.2636 16.0286 13.2719C16.0352 13.1907 16.0394 13.1089 16.0394 13.026L14.2158 13.1301Z" fill="white" style="fill:white;fill-opacity:1;"/>
<path d="M15.8627 12.6491C15.852 12.5673 15.9085 12.4926 15.9894 12.4795C15.9598 12.3162 15.9175 12.1573 15.8629 12.0042C15.7861 12.0339 15.6993 11.9974 15.6676 11.921C15.636 11.8446 15.6715 11.7574 15.7468 11.7241C15.7115 11.6497 15.6729 11.5773 15.6319 11.5065L14.105 12.5084L13.541 12.7496C13.5556 12.7781 13.5682 12.8079 13.5782 12.8388L14.1474 12.6107L15.9358 12.2393L14.2013 12.812L13.5944 12.899C13.601 12.9301 13.6047 12.9622 13.6064 12.9949L14.2158 12.9218L16.0394 13.026C16.0394 12.9431 16.0352 12.8612 16.0286 12.78C15.9473 12.7883 15.8735 12.7307 15.8627 12.6491Z" fill="white" style="fill:white;fill-opacity:1;"/>
<path d="M14.0008 13.7241L13.5098 13.3563C13.4922 13.3834 13.4724 13.4088 13.4508 13.4328L13.9334 13.8119L15.1491 15.1751C15.2072 15.1171 15.2623 15.0562 15.3155 14.9937C15.2521 14.9419 15.2406 14.849 15.2907 14.7837C15.341 14.7182 15.4339 14.7053 15.5003 14.7535C15.5469 14.6861 15.5907 14.6166 15.6318 14.5455L14.0008 13.7241Z" fill="white" style="fill:white;fill-opacity:1;"/>
<path d="M13.031 12.4196C13.0638 12.4213 13.0959 12.425 13.127 12.4316L13.214 11.8247L13.7867 10.0901L13.4153 11.8785L13.1872 12.4477C13.2181 12.4577 13.2478 12.4704 13.2764 12.485L13.5176 11.921L14.5195 10.3941C14.4486 10.3531 14.3762 10.3145 14.3019 10.2792C14.2685 10.3545 14.1813 10.3899 14.105 10.3583C14.0286 10.3267 13.992 10.2399 14.0217 10.1631C13.8686 10.1085 13.7098 10.0662 13.5464 10.0365C13.5334 10.1175 13.4586 10.174 13.3768 10.1633C13.2953 10.1525 13.2376 10.0787 13.246 9.99734C13.1648 9.99084 13.0829 9.98657 13 9.98657L13.1042 11.8101L13.031 12.4196Z" fill="white" style="fill:white;fill-opacity:1;"/>
<path d="M12.214 12.0926L12.5932 12.5752C12.6171 12.5536 12.6425 12.5337 12.6697 12.5161L12.3019 12.0251L11.4804 10.3941C11.4093 10.4353 11.3398 10.4791 11.2724 10.5257C11.3206 10.5921 11.3077 10.685 11.2423 10.7353C11.1769 10.7854 11.084 10.7738 11.0322 10.7104C10.9697 10.7636 10.9088 10.8188 10.8508 10.8768L12.214 12.0926Z" fill="white" style="fill:white;fill-opacity:1;"/>
<path d="M11.9991 12.3279L12.4901 12.6957C12.5078 12.6685 12.5276 12.6431 12.5492 12.6192L12.0666 12.24L10.8508 10.8768C10.7928 10.9348 10.7376 10.9957 10.6845 11.0583C10.7479 11.1101 10.7594 11.2029 10.7093 11.2683C10.659 11.3337 10.5661 11.3466 10.4997 11.2985C10.4531 11.3658 10.4093 11.4353 10.3681 11.5065L11.9991 12.3279Z" fill="white" style="fill:white;fill-opacity:1;"/>
<path d="M12.969 13.6323C12.9363 13.6307 12.9041 13.627 12.873 13.6204L12.786 14.2272L12.2133 15.9618L12.5847 14.1734L12.8129 13.6042C12.7819 13.5942 12.7522 13.5815 12.7236 13.5669L12.4824 14.1309L11.4805 15.6578C11.5514 15.6988 11.6238 15.7375 11.6981 15.7728C11.7315 15.6975 11.8187 15.662 11.895 15.6936C11.9715 15.7253 12.008 15.812 11.9783 15.8888C12.1314 15.9435 12.2903 15.9858 12.4536 16.0154C12.4666 15.9345 12.5414 15.878 12.6232 15.8887C12.7048 15.8995 12.7624 15.9733 12.7541 16.0546C12.8353 16.0611 12.9171 16.0654 13 16.0654L12.8958 14.2418L12.969 13.6323Z" fill="white" style="fill:white;fill-opacity:1;"/>
<path d="M11.4805 15.6578L12.3019 14.0269L12.6697 13.5359C12.6425 13.5183 12.6171 13.4984 12.5932 13.4768L12.214 13.9594L10.8508 15.1752C10.9089 15.2332 10.9697 15.2884 11.0323 15.3415C11.084 15.2781 11.1769 15.2666 11.2423 15.3167C11.3077 15.367 11.3206 15.4599 11.2725 15.5263C11.3398 15.5729 11.4093 15.6167 11.4805 15.6578Z" fill="white" style="fill:white;fill-opacity:1;"/>
<path d="M13.3768 15.8887C13.4586 15.878 13.5334 15.9345 13.5464 16.0154C13.7097 15.9858 13.8686 15.9435 14.0217 15.8889C13.992 15.8121 14.0285 15.7253 14.105 15.6937C14.1813 15.662 14.2685 15.6975 14.3019 15.7728C14.3762 15.7375 14.4486 15.6989 14.5194 15.6579L13.5176 14.131L13.2764 13.567C13.2478 13.5816 13.2181 13.5942 13.1871 13.6042L13.4152 14.1734L13.7867 15.9618L13.214 14.2273L13.127 13.6204C13.0959 13.627 13.0637 13.6307 13.031 13.6324L13.1042 14.2418L13 16.0654C13.0829 16.0654 13.1647 16.0612 13.2459 16.0546C13.2376 15.9733 13.2953 15.8995 13.3768 15.8887Z" fill="white" style="fill:white;fill-opacity:1;"/>
<path d="M10.2532 14.3279C10.2885 14.4022 10.3271 14.4746 10.3681 14.5455L11.895 13.5436L12.459 13.3024C12.4444 13.2738 12.4318 13.2441 12.4218 13.2132L11.8526 13.4412L10.0642 13.8127L11.7987 13.24L12.4056 13.153C12.399 13.1219 12.3953 13.0897 12.3937 13.057L11.7842 13.1302L9.9606 13.026C9.9606 13.1089 9.96487 13.1907 9.97137 13.2719C10.0527 13.2636 10.1265 13.3213 10.1373 13.4028C10.148 13.4846 10.0915 13.5594 10.0105 13.5724C10.0402 13.7357 10.0825 13.8946 10.1372 14.0477C10.214 14.018 10.3007 14.0545 10.3323 14.131C10.364 14.2073 10.3285 14.2945 10.2532 14.3279Z" fill="white" style="fill:white;fill-opacity:1;"/>
<path d="M12.5492 13.4328C12.5276 13.4088 12.5078 13.3834 12.4902 13.3563L11.9992 13.7241L10.3682 14.5455C10.4093 14.6167 10.4531 14.6861 10.4998 14.7535C10.5661 14.7054 10.659 14.7183 10.7093 14.7837C10.7594 14.849 10.7479 14.9419 10.6845 14.9937C10.7377 15.0562 10.7928 15.1171 10.8508 15.1751L12.0666 13.812L12.5492 13.4328Z" fill="white" style="fill:white;fill-opacity:1;"/>
<path d="M12.3937 12.995C12.3953 12.9623 12.399 12.9301 12.4056 12.899L11.7987 12.812L10.0642 12.2393L11.8526 12.6108L12.4218 12.8389C12.4318 12.8079 12.4444 12.7782 12.459 12.7496L11.895 12.5084L10.3681 11.5065C10.3271 11.5774 10.2885 11.6498 10.2532 11.7241C10.3285 11.7575 10.364 11.8447 10.3323 11.921C10.3007 11.9975 10.2139 12.034 10.1371 12.0043C10.0825 12.1574 10.0402 12.3163 10.0105 12.4796C10.0915 12.4926 10.148 12.5674 10.1373 12.6492C10.1265 12.7308 10.0527 12.7884 9.97134 12.7801C9.96484 12.8613 9.96057 12.9431 9.96057 13.026L11.7841 12.9219L12.3937 12.995Z" fill="white" style="fill:white;fill-opacity:1;"/>
</g>
</g>
<defs>
<clipPath id="clip0_125_8676">
<rect width="26" height="26" fill="white" style="fill:white;fill-opacity:1;"/>
</clipPath>
</defs>
</svg>
