<svg width="24" height="24" viewBox="0 0 24 24" fill="none" xmlns="http://www.w3.org/2000/svg">
<path d="M11.063 9.93762H16.688" stroke="#151B1E" style="stroke:#151B1E;stroke:color(display-p3 0.0824 0.1059 0.1176);stroke-opacity:1;" stroke-width="1.5" stroke-miterlimit="10" stroke-linecap="round" stroke-linejoin="round"/>
<circle cx="7.31299" cy="9.93762" r="0.9375" fill="#151B1E" style="fill:#151B1E;fill:color(display-p3 0.0824 0.1059 0.1176);fill-opacity:1;"/>
<path d="M11.063 13.6876H16.688" stroke="#151B1E" style="stroke:#151B1E;stroke:color(display-p3 0.0824 0.1059 0.1176);stroke-opacity:1;" stroke-width="1.5" stroke-miterlimit="10" stroke-linecap="round" stroke-linejoin="round"/>
<circle cx="7.31299" cy="13.6876" r="0.9375" fill="#151B1E" style="fill:#151B1E;fill:color(display-p3 0.0824 0.1059 0.1176);fill-opacity:1;"/>
<path d="M11.063 17.4376H16.688" stroke="#151B1E" style="stroke:#151B1E;stroke:color(display-p3 0.0824 0.1059 0.1176);stroke-opacity:1;" stroke-width="1.5" stroke-miterlimit="10" stroke-linecap="round" stroke-linejoin="round"/>
<circle cx="7.31299" cy="17.4376" r="0.9375" fill="#151B1E" style="fill:#151B1E;fill:color(display-p3 0.0824 0.1059 0.1176);fill-opacity:1;"/>
<path d="M14.813 2.81262C14.813 3.84814 13.9735 4.68762 12.938 4.68762H11.063C10.0275 4.68762 9.18799 3.84814 9.18799 2.81262C9.18799 1.77711 10.0275 0.937622 11.063 0.937622H12.938C13.9735 0.937622 14.813 1.77711 14.813 2.81262Z" stroke="#151B1E" style="stroke:#151B1E;stroke:color(display-p3 0.0824 0.1059 0.1176);stroke-opacity:1;" stroke-width="1.5" stroke-miterlimit="10" stroke-linecap="round" stroke-linejoin="round"/>
<path d="M9.18799 2.81262H5.43799C4.40247 2.81262 3.56299 3.65211 3.56299 4.68762V21.1876C3.56299 22.2231 4.40247 23.0626 5.43799 23.0626H18.563C19.5985 23.0626 20.438 22.2231 20.438 21.1876V4.68762C20.438 3.65211 19.5985 2.81262 18.563 2.81262H14.8953" stroke="#151B1E" style="stroke:#151B1E;stroke:color(display-p3 0.0824 0.1059 0.1176);stroke-opacity:1;" stroke-width="1.5" stroke-miterlimit="10" stroke-linecap="round" stroke-linejoin="round"/>
</svg>
