<svg width="120" height="120" viewBox="0 0 120 120" fill="none" xmlns="http://www.w3.org/2000/svg">
<rect width="120" height="120" rx="60" fill="#02BC7D" fill-opacity="0.05" style="fill:#02BC7D;fill:color(display-p3 0.0078 0.7373 0.4902);fill-opacity:0.05;"/>
<path d="M91.996 87.7063L55.6588 83.8871L55.8398 82.1649L92.177 85.9841C93.1595 86.0874 94.0427 85.3721 94.1459 84.39L97.1709 55.61C97.2741 54.6275 96.5588 53.7446 95.5764 53.6413L59.2392 49.8221L59.4202 48.1L95.7574 51.9192C97.6894 52.1222 99.0957 53.8593 98.8927 55.7909L95.8678 84.571C95.6647 86.5026 93.928 87.9093 91.996 87.7063Z" fill="#151B1E" style="fill:#151B1E;fill:color(display-p3 0.0824 0.1059 0.1176);fill-opacity:1;"/>
<path d="M79.6183 48.4444L81.3281 32.1768C81.6147 29.4502 79.6291 26.9982 76.9025 26.7117L41.4815 22.9888C38.7545 22.7021 36.3029 24.6877 36.0164 27.4143L34.156 45.1149C34.7405 45.0086 35.3288 44.9322 35.9209 44.8855L37.7382 27.5953C37.925 25.8182 39.523 24.5241 41.3005 24.7109L76.7215 28.4338C78.4986 28.6206 79.7927 30.2187 79.6059 31.9958L77.8961 48.2634L79.6183 48.4444Z" fill="#151B1E" style="fill:#151B1E;fill:color(display-p3 0.0824 0.1059 0.1176);fill-opacity:1;"/>
<path d="M28.707 96.9588C28.4204 99.6854 30.4056 102.137 33.1325 102.424L68.5535 106.147C71.2802 106.433 73.7321 104.448 74.0187 101.721L75.4871 87.75L73.7649 87.5689L72.2965 101.54C72.1097 103.317 70.5117 104.611 68.7345 104.425L33.3135 100.702C31.5361 100.515 30.242 98.9168 30.4288 97.1397L32.246 79.8496C31.6766 79.6808 31.117 79.4837 30.5674 79.2582L28.707 96.9588Z" fill="#151B1E" style="fill:#151B1E;fill:color(display-p3 0.0824 0.1059 0.1176);fill-opacity:1;"/>
<path fill-rule="evenodd" clip-rule="evenodd" d="M53.2581 64.383C52.3347 73.169 44.4634 79.543 35.6771 78.6195C26.8908 77.696 20.5168 69.8248 21.4403 61.0385C22.3637 52.2525 30.235 45.8785 39.0213 46.802C47.8076 47.7255 54.1816 55.5967 53.2581 64.3827L53.2581 64.383ZM48.2511 58.5823L45.9693 55.7645L34.4386 65.1019L29.8088 59.3846L26.991 61.6663L33.9026 70.2015L48.2511 58.5823Z" fill="#02BC7D" style="fill:#02BC7D;fill:color(display-p3 0.0078 0.7373 0.4902);fill-opacity:1;"/>
<path d="M58.7575 54.4013L97.7377 58.4983L97.0452 65.0868L58.065 60.9898L58.7575 54.4013Z" fill="#151B1E" style="fill:#151B1E;fill:color(display-p3 0.0824 0.1059 0.1176);fill-opacity:1;"/>
<path d="M72.6109 76.2856L56.6342 74.6063L56.8153 72.8842L72.7919 74.5634C73.2672 74.6133 73.6123 75.0395 73.5623 75.5148C73.5123 75.9904 73.0862 76.3355 72.6109 76.2856Z" fill="#151B1E" style="fill:#151B1E;fill:color(display-p3 0.0824 0.1059 0.1176);fill-opacity:1;"/>
<path d="M72.1283 80.8772L56.1516 79.198L56.3326 77.4762L72.3092 79.1554C72.7845 79.2053 73.1296 79.6315 73.0797 80.1068C73.0297 80.5824 72.6036 80.9271 72.1283 80.8772Z" fill="#151B1E" style="fill:#151B1E;fill:color(display-p3 0.0824 0.1059 0.1176);fill-opacity:1;"/>
<path d="M58.4055 100.917L44.1461 99.4182C43.6705 99.3682 43.3257 98.9421 43.3757 98.4668C43.4257 97.9912 43.8515 97.6461 44.3271 97.696L58.5865 99.1948C59.0622 99.2448 59.4069 99.6709 59.3569 100.147C59.307 100.622 58.8812 100.967 58.4055 100.917Z" fill="#151B1E" style="fill:#151B1E;fill:color(display-p3 0.0824 0.1059 0.1176);fill-opacity:1;"/>
<path d="M61.9507 31.1328L55.1874 30.4219C54.7118 30.3719 54.367 29.9462 54.417 29.4705C54.467 28.9949 54.8927 28.6501 55.3684 28.7001L62.1316 29.4109C62.6069 29.4609 62.952 29.8867 62.902 30.3623C62.8521 30.838 62.4259 31.1827 61.9507 31.1328Z" fill="#151B1E" style="fill:#151B1E;fill:color(display-p3 0.0824 0.1059 0.1176);fill-opacity:1;"/>
<path d="M90.7246 31.3752L83.9618 30.6644C83.4861 30.6144 83.1414 30.1886 83.1914 29.713C83.2413 29.2374 83.6671 28.8926 84.1427 28.9426L90.9056 29.6534C91.3813 29.7034 91.7264 30.1292 91.6764 30.6048C91.6264 31.0805 91.2003 31.4252 90.7246 31.3752Z" fill="#151B1E" style="fill:#151B1E;fill:color(display-p3 0.0824 0.1059 0.1176);fill-opacity:1;"/>
<path d="M79.6999 25.4014C79.2242 25.3514 78.8794 24.9256 78.9294 24.45L79.6402 17.6871C79.6902 17.2114 80.116 16.8663 80.5917 16.9163C81.0673 16.9663 81.4121 17.3924 81.3621 17.8681L80.6513 24.6309C80.6013 25.1066 80.1755 25.4514 79.6999 25.4014Z" fill="#151B1E" style="fill:#151B1E;fill:color(display-p3 0.0824 0.1059 0.1176);fill-opacity:1;"/>
<path d="M82.3797 27.4529C82.1592 27.4297 81.9476 27.3225 81.7972 27.1369C81.4962 26.7652 81.5535 26.2201 81.9252 25.9194L87.2102 21.6397C87.5815 21.3387 88.127 21.396 88.4276 21.7677C88.7287 22.1391 88.6713 22.6845 88.2997 22.9852L83.0147 27.2648C82.829 27.4152 82.5998 27.476 82.3797 27.4529Z" fill="#151B1E" style="fill:#151B1E;fill:color(display-p3 0.0824 0.1059 0.1176);fill-opacity:1;"/>
<path d="M65.328 31.4877L64.7414 31.4261C64.2658 31.3761 63.921 30.9503 63.971 30.4747C64.021 29.999 64.4468 29.6543 64.9224 29.7043L65.509 29.7659C65.9843 29.8159 66.3294 30.2417 66.2794 30.7173C66.2294 31.193 65.8033 31.5377 65.328 31.4877Z" fill="#151B1E" style="fill:#151B1E;fill:color(display-p3 0.0824 0.1059 0.1176);fill-opacity:1;"/>
</svg>
