<svg width="15" height="15" viewBox="0 0 15 15" fill="none" xmlns="http://www.w3.org/2000/svg">
<path d="M14.5 6.40433C14.2179 3.27451 11.7255 0.782074 8.59568 0.500031M9.69081 6.43396C9.51748 5.91445 9.11106 5.48926 8.59567 5.30709M12.1246 6.40433C11.8645 4.58609 10.4139 3.13552 8.59568 2.87545M12.9893 9.11939C12.1925 8.32121 10.8411 8.59845 10.4206 9.64575C10.2127 10.1637 10.0179 10.5083 9.94093 10.5854C8.42256 12.1064 6.68279 10.6436 5.54029 9.49917C4.40686 8.36382 2.92571 6.56768 4.39257 5.09832C4.47379 5.01695 4.83089 4.81011 5.36618 4.5918C6.4054 4.16794 6.67445 2.81763 5.88105 2.02286L4.87407 0.976438C4.2795 0.380828 3.33091 0.343997 2.68628 0.884806C2.50008 1.041 2.3196 1.20751 2.14562 1.38437C-0.818558 4.39697 0.566663 8.55734 3.56817 11.5326C6.551 14.4894 10.6851 15.7896 13.6561 12.8135C13.8198 12.6495 13.9745 12.4799 14.1201 12.3053C14.6573 11.6614 14.6157 10.7134 14.0234 10.1201L12.9893 9.11939Z" stroke="#151B1E" style="stroke:#151B1E;stroke:color(display-p3 0.0824 0.1059 0.1176);stroke-opacity:1;" stroke-miterlimit="22.926" stroke-linecap="round" stroke-linejoin="round"/>
</svg>
