<svg width="24" height="24" viewBox="0 0 24 24" fill="none" xmlns="http://www.w3.org/2000/svg">
<path d="M16.756 5.50487C16.756 8.13091 14.6272 10.2597 12.0012 10.2597C9.37514 10.2597 7.24631 8.13091 7.24631 5.50487C7.24631 2.87883 9.37514 0.75 12.0012 0.75C14.6272 0.75 16.756 2.87883 16.756 5.50487Z" fill="#F25800" style="fill:#F25800;fill:color(display-p3 0.9490 0.3451 0.0000);fill-opacity:1;"/>
<path d="M2.50073 23.25V19.7695C2.50073 16.4869 5.16177 13.8259 8.44431 13.8259H15.5558C18.8384 13.8259 21.4994 16.4869 21.4994 19.7695V23.25H2.50073Z" fill="#F25800" style="fill:#F25800;fill:color(display-p3 0.9490 0.3451 0.0000);fill-opacity:1;"/>
<path d="M16.756 5.50487C16.756 8.13091 14.6272 10.2597 12.0012 10.2597C9.37514 10.2597 7.24631 8.13091 7.24631 5.50487C7.24631 2.87883 9.37514 0.75 12.0012 0.75C14.6272 0.75 16.756 2.87883 16.756 5.50487Z" stroke="#F25800" style="stroke:#F25800;stroke:color(display-p3 0.9490 0.3451 0.0000);stroke-opacity:1;" stroke-width="1.5" stroke-miterlimit="10" stroke-linecap="round" stroke-linejoin="round"/>
<path d="M2.50073 23.25V19.7695C2.50073 16.4869 5.16177 13.8259 8.44431 13.8259H15.5558C18.8384 13.8259 21.4994 16.4869 21.4994 19.7695V23.25H2.50073Z" stroke="#F25800" style="stroke:#F25800;stroke:color(display-p3 0.9490 0.3451 0.0000);stroke-opacity:1;" stroke-width="1.5" stroke-miterlimit="10" stroke-linecap="round" stroke-linejoin="round"/>
</svg>
