<svg width="20" height="20" viewBox="0 0 20 20" fill="none" xmlns="http://www.w3.org/2000/svg">
<path d="M2.22261 3.88883C2.22261 4.1955 2.47149 4.44439 2.77814 4.44439H3.88922C4.19588 4.44439 4.44476 4.1955 4.44476 3.88883V2.77772C4.44476 2.47106 4.19588 2.22217 3.88922 2.22217H2.77814C2.47149 2.22217 2.22261 2.47106 2.22261 2.77772V3.88883Z" fill="#151B1E" style="fill:#151B1E;fill:color(display-p3 0.0824 0.1059 0.1176);fill-opacity:1;"/>
<path d="M0.555538 0C0.248881 0 0 0.248889 0 0.555555V6.11111C0 6.41777 0.248881 6.66666 0.555538 6.66666H6.11092C6.41758 6.66666 6.66646 6.41777 6.66646 6.11111V0.555555C6.66646 0.248889 6.41758 0 6.11092 0H0.555538ZM1.11108 1.11111H5.55538V5.55555H1.11108V1.11111Z" fill="#151B1E" style="fill:#151B1E;fill:color(display-p3 0.0824 0.1059 0.1176);fill-opacity:1;"/>
<path d="M4.44476 16.1112C4.44476 15.8046 4.19588 15.5557 3.88922 15.5557H2.77814C2.47149 15.5557 2.22261 15.8046 2.22261 16.1112V17.2223C2.22261 17.529 2.47149 17.7779 2.77814 17.7779H3.88922C4.19588 17.7779 4.44476 17.529 4.44476 17.2223V16.1112Z" fill="#151B1E" style="fill:#151B1E;fill:color(display-p3 0.0824 0.1059 0.1176);fill-opacity:1;"/>
<path d="M6.66646 13.8888C6.66646 13.5821 6.41758 13.3333 6.11092 13.3333H0.555538C0.248881 13.3333 0 13.5821 0 13.8888V19.4444C0 19.751 0.248881 19.9999 0.555538 19.9999H6.11092C6.41758 19.9999 6.66646 19.751 6.66646 19.4444V13.8888ZM5.55538 18.8888H1.11108V14.4444H5.55538V18.8888Z" fill="#151B1E" style="fill:#151B1E;fill:color(display-p3 0.0824 0.1059 0.1176);fill-opacity:1;"/>
<path d="M15.5556 3.88883C15.5556 4.1955 15.8045 4.44439 16.1112 4.44439H17.2223C17.5289 4.44439 17.7778 4.1955 17.7778 3.88883V2.77772C17.7778 2.47106 17.5289 2.22217 17.2223 2.22217H16.1112C15.8045 2.22217 15.5556 2.47106 15.5556 2.77772V3.88883Z" fill="#151B1E" style="fill:#151B1E;fill:color(display-p3 0.0824 0.1059 0.1176);fill-opacity:1;"/>
<path d="M13.333 6.11111C13.333 6.41777 13.5819 6.66666 13.8886 6.66666H19.444C19.7506 6.66666 19.9995 6.41777 19.9995 6.11111V0.555555C19.9995 0.248889 19.7506 0 19.444 0H13.8886C13.5819 0 13.333 0.248889 13.333 0.555555V6.11111ZM14.4441 1.11111H18.8884V5.55555H14.4441V1.11111Z" fill="#151B1E" style="fill:#151B1E;fill:color(display-p3 0.0824 0.1059 0.1176);fill-opacity:1;"/>
<path d="M3.8884 12.2223C4.00951 12.2223 8.49714 12.2223 8.3327 12.2223C9.06824 12.2223 9.06713 11.1112 8.3327 11.1112H6.66609V9.44456C6.66609 8.70901 5.55501 8.71012 5.55501 9.44456V11.1112H3.8884C3.15287 11.1112 3.15398 12.2223 3.8884 12.2223Z" fill="#151B1E" style="fill:#151B1E;fill:color(display-p3 0.0824 0.1059 0.1176);fill-opacity:1;"/>
<path d="M8.88824 1.66675V0.555644C8.88824 -0.179911 7.77717 -0.1788 7.77717 0.555644V1.66675C7.77717 2.40231 8.88824 2.4012 8.88824 1.66675Z" fill="#151B1E" style="fill:#151B1E;fill:color(display-p3 0.0824 0.1059 0.1176);fill-opacity:1;"/>
<path d="M8.33361 4.44441H10.5558C10.8624 4.44441 11.1113 4.19553 11.1113 3.88886V2.22219H11.6668C12.4024 2.22219 12.4013 1.11108 11.6668 1.11108H10.5558C10.2491 1.11108 10.0002 1.35997 10.0002 1.66664V3.3333H8.33361C7.59808 3.3333 7.59919 4.44441 8.33361 4.44441Z" fill="#151B1E" style="fill:#151B1E;fill:color(display-p3 0.0824 0.1059 0.1176);fill-opacity:1;"/>
<path d="M8.33361 9.99986H10.5558C11.2913 9.99986 11.2902 8.88875 10.5558 8.88875H10.0002V6.66653H11.6668C12.4024 6.66653 12.4013 5.55542 11.6668 5.55542H9.44468C9.13803 5.55542 8.88915 5.80431 8.88915 6.11098V8.88875H8.33361C7.59808 8.88875 7.59919 9.99986 8.33361 9.99986Z" fill="#151B1E" style="fill:#151B1E;fill:color(display-p3 0.0824 0.1059 0.1176);fill-opacity:1;"/>
<path d="M12.2211 9.44434C12.2211 10.1799 13.3322 10.1788 13.3322 9.44434V8.33323C13.3322 7.59768 12.2211 7.59879 12.2211 8.33323V9.44434Z" fill="#151B1E" style="fill:#151B1E;fill:color(display-p3 0.0824 0.1059 0.1176);fill-opacity:1;"/>
<path d="M8.88824 15.5556H9.99932V16.1111C9.99932 16.8467 11.1104 16.8456 11.1104 16.1111V12.7778C11.1104 12.0423 9.99932 12.0434 9.99932 12.7778V14.4445H8.33271C8.02605 14.4445 7.77717 14.6934 7.77717 15V16.1111C7.77717 16.8467 8.88824 16.8456 8.88824 16.1111V15.5556Z" fill="#151B1E" style="fill:#151B1E;fill:color(display-p3 0.0824 0.1059 0.1176);fill-opacity:1;"/>
<path d="M13.333 16.1111V16.6666H12.7775C12.4708 16.6666 12.222 16.9155 12.222 17.2222V18.8888H9.44426C8.70873 18.8888 8.70984 20 9.44426 20H12.7775C13.0841 20 13.333 19.7511 13.333 19.4444V17.7777H13.8886C14.1952 17.7777 14.4441 17.5288 14.4441 17.2222V16.1111C14.4441 15.3755 13.333 15.3766 13.333 16.1111Z" fill="#151B1E" style="fill:#151B1E;fill:color(display-p3 0.0824 0.1059 0.1176);fill-opacity:1;"/>
<path d="M16.6663 17.2221V18.8888H16.1108C15.3752 18.8888 15.3764 19.9999 16.1108 19.9999H19.444C20.1795 19.9999 20.1784 18.8888 19.444 18.8888H17.7774V17.2221C17.7774 16.4866 16.6663 16.4877 16.6663 17.2221Z" fill="#151B1E" style="fill:#151B1E;fill:color(display-p3 0.0824 0.1059 0.1176);fill-opacity:1;"/>
<path d="M19.9995 13.8888C19.9995 13.5821 19.7507 13.3333 19.444 13.3333H16.1108C15.3752 13.3333 15.3764 14.4444 16.1108 14.4444H18.8885V16.1132C18.8885 16.8488 19.9995 16.8477 19.9995 16.1132V13.8888Z" fill="#151B1E" style="fill:#151B1E;fill:color(display-p3 0.0824 0.1059 0.1176);fill-opacity:1;"/>
<path d="M20 9.44456C20 8.70901 18.8889 8.71012 18.8889 9.44456V11.1112H18.3334C17.5979 11.1112 17.599 12.2223 18.3334 12.2223H19.4445C19.7511 12.2223 20 11.9734 20 11.6668V9.44456Z" fill="#151B1E" style="fill:#151B1E;fill:color(display-p3 0.0824 0.1059 0.1176);fill-opacity:1;"/>
<path d="M16.6663 11.6667V8.88894H17.2218C17.9574 8.88894 17.9562 7.77783 17.2218 7.77783H16.1107C15.8041 7.77783 15.5552 8.02672 15.5552 8.33339V11.1112H13.8886C13.5819 11.1112 13.3331 11.3601 13.3331 11.6667V13.3334H12.7775C12.042 13.3334 12.0431 14.4445 12.7775 14.4445H13.8886C14.1953 14.4445 14.4441 14.1956 14.4441 13.8889V12.2223H16.1107C16.4174 12.2223 16.6663 11.9734 16.6663 11.6667Z" fill="#151B1E" style="fill:#151B1E;fill:color(display-p3 0.0824 0.1059 0.1176);fill-opacity:1;"/>
<path d="M0 8.33323C0 8.49879 0 11.8277 0 11.6666C0 12.4021 1.11108 12.401 1.11108 11.6666V9.9999H2.77769C3.51322 9.9999 3.51211 8.88879 2.77769 8.88879H1.11108V8.33323C1.11108 7.59768 0 7.59879 0 8.33323Z" fill="#151B1E" style="fill:#151B1E;fill:color(display-p3 0.0824 0.1059 0.1176);fill-opacity:1;"/>
</svg>
