<svg width="30" height="30" viewBox="0 0 30 30" fill="none" xmlns="http://www.w3.org/2000/svg">
<path d="M3.33398 5.83349C3.33398 6.29349 3.70731 6.66683 4.16729 6.66683H5.8339C6.29389 6.66683 6.66721 6.29349 6.66721 5.83349V4.16683C6.66721 3.70683 6.29389 3.3335 5.8339 3.3335H4.16729C3.70731 3.3335 3.33398 3.70683 3.33398 4.16683V5.83349Z" fill="white" style="fill:white;fill-opacity:1;"/>
<path d="M0.833306 0C0.373321 0 0 0.373333 0 0.833333V9.16667C0 9.62667 0.373321 10 0.833306 10H9.16636C9.62635 10 9.99967 9.62667 9.99967 9.16667V0.833333C9.99967 0.373333 9.62635 0 9.16636 0H0.833306ZM1.66661 1.66667H8.33306V8.33333H1.66661V1.66667Z" fill="white" style="fill:white;fill-opacity:1;"/>
<path d="M6.66721 24.1667C6.66721 23.7067 6.29389 23.3334 5.8339 23.3334H4.16729C3.70731 23.3334 3.33398 23.7067 3.33398 24.1667V25.8334C3.33398 26.2934 3.70731 26.6667 4.16729 26.6667H5.8339C6.29389 26.6667 6.66721 26.2934 6.66721 25.8334V24.1667Z" fill="white" style="fill:white;fill-opacity:1;"/>
<path d="M9.99967 20.8332C9.99967 20.3732 9.62635 19.9999 9.16636 19.9999H0.833306C0.373321 19.9999 0 20.3732 0 20.8332V29.1665C0 29.6265 0.373321 29.9999 0.833306 29.9999H9.16636C9.62635 29.9999 9.99967 29.6265 9.99967 29.1665V20.8332ZM8.33306 28.3332H1.66661V21.6665H8.33306V28.3332Z" fill="white" style="fill:white;fill-opacity:1;"/>
<path d="M23.3335 5.83349C23.3335 6.29349 23.7068 6.66683 24.1668 6.66683H25.8334C26.2934 6.66683 26.6667 6.29349 26.6667 5.83349V4.16683C26.6667 3.70683 26.2934 3.3335 25.8334 3.3335H24.1668C23.7068 3.3335 23.3335 3.70683 23.3335 4.16683V5.83349Z" fill="white" style="fill:white;fill-opacity:1;"/>
<path d="M19.9998 9.16667C19.9998 9.62667 20.3731 10 20.8331 10H29.1661C29.6261 10 29.9994 9.62667 29.9994 9.16667V0.833333C29.9994 0.373333 29.6261 0 29.1661 0H20.8331C20.3731 0 19.9998 0.373333 19.9998 0.833333V9.16667ZM21.6664 1.66667H28.3328V8.33333H21.6664V1.66667Z" fill="white" style="fill:white;fill-opacity:1;"/>
<path d="M5.83271 18.3334C6.01437 18.3334 12.7458 18.3334 12.4992 18.3334C13.6024 18.3334 13.6008 16.6667 12.4992 16.6667H9.99924V14.1667C9.99924 13.0634 8.33262 13.0651 8.33262 14.1667V16.6667H5.83271C4.72941 16.6667 4.73108 18.3334 5.83271 18.3334Z" fill="white" style="fill:white;fill-opacity:1;"/>
<path d="M13.3321 2.50001V0.833345C13.3321 -0.269988 11.6655 -0.268322 11.6655 0.833345V2.50001C11.6655 3.60334 13.3321 3.60168 13.3321 2.50001Z" fill="white" style="fill:white;fill-opacity:1;"/>
<path d="M12.5004 6.66663H15.8337C16.2936 6.66663 16.667 6.29329 16.667 5.83329V3.33329H17.5003C18.6036 3.33329 18.6019 1.66663 17.5003 1.66663H15.8337C15.3737 1.66663 15.0003 2.03996 15.0003 2.49996V4.99996H12.5004C11.3971 4.99996 11.3988 6.66663 12.5004 6.66663Z" fill="white" style="fill:white;fill-opacity:1;"/>
<path d="M12.5004 14.9999H15.8337C16.937 14.9999 16.9353 13.3333 15.8337 13.3333H15.0003V9.99992H17.5003C18.6036 9.99992 18.6019 8.33325 17.5003 8.33325H14.167C13.7071 8.33325 13.3337 8.70659 13.3337 9.16659V13.3333H12.5004C11.3971 13.3333 11.3988 14.9999 12.5004 14.9999Z" fill="white" style="fill:white;fill-opacity:1;"/>
<path d="M18.3315 14.1666C18.3315 15.27 19.9982 15.2683 19.9982 14.1666V12.5C19.9982 11.3966 18.3315 11.3983 18.3315 12.5V14.1666Z" fill="white" style="fill:white;fill-opacity:1;"/>
<path d="M13.3321 23.3334H14.9988V24.1667C14.9988 25.2701 16.6654 25.2684 16.6654 24.1667V19.1667C16.6654 18.0634 14.9988 18.0651 14.9988 19.1667V21.6667H12.4988C12.0388 21.6667 11.6655 22.0401 11.6655 22.5001V24.1667C11.6655 25.2701 13.3321 25.2684 13.3321 24.1667V23.3334Z" fill="white" style="fill:white;fill-opacity:1;"/>
<path d="M19.9996 24.1666V24.9999H19.1663C18.7063 24.9999 18.333 25.3733 18.333 25.8333V28.3333H14.1664C13.0632 28.3333 13.0648 29.9999 14.1664 29.9999H19.1663C19.6263 29.9999 19.9996 29.6266 19.9996 29.1666V26.6666H20.8329C21.2929 26.6666 21.6662 26.2933 21.6662 25.8333V24.1666C21.6662 23.0633 19.9996 23.0649 19.9996 24.1666Z" fill="white" style="fill:white;fill-opacity:1;"/>
<path d="M24.9993 25.8333V28.3333H24.166C23.0627 28.3333 23.0643 30 24.166 30H29.1658C30.2691 30 30.2674 28.3333 29.1658 28.3333H26.6659V25.8333C26.6659 24.73 24.9993 24.7317 24.9993 25.8333Z" fill="white" style="fill:white;fill-opacity:1;"/>
<path d="M29.9991 20.8332C29.9991 20.3732 29.6258 19.9999 29.1658 19.9999H24.166C23.0627 19.9999 23.0643 21.6665 24.166 21.6665H28.3325V24.1699C28.3325 25.2732 29.9991 25.2715 29.9991 24.1699V20.8332Z" fill="white" style="fill:white;fill-opacity:1;"/>
<path d="M30.0001 14.1667C30.0001 13.0634 28.3335 13.0651 28.3335 14.1667V16.6667H27.5002C26.3969 16.6667 26.3986 18.3334 27.5002 18.3334H29.1668C29.6268 18.3334 30.0001 17.9601 30.0001 17.5001V14.1667Z" fill="white" style="fill:white;fill-opacity:1;"/>
<path d="M24.9996 17.5V13.3333H25.8329C26.9362 13.3333 26.9345 11.6666 25.8329 11.6666H24.1663C23.7063 11.6666 23.333 12.04 23.333 12.5V16.6666H20.8331C20.3731 16.6666 19.9998 17.04 19.9998 17.5V20H19.1664C18.0632 20 18.0648 21.6666 19.1664 21.6666H20.8331C21.293 21.6666 21.6664 21.2933 21.6664 20.8333V18.3333H24.1663C24.6263 18.3333 24.9996 17.96 24.9996 17.5Z" fill="white" style="fill:white;fill-opacity:1;"/>
<path d="M0 12.5C0 12.7483 0 17.7416 0 17.5C0 18.6033 1.66661 18.6016 1.66661 17.5V15H4.16653C5.26983 15 5.26816 13.3333 4.16653 13.3333H1.66661V12.5C1.66661 11.3966 0 11.3983 0 12.5Z" fill="white" style="fill:white;fill-opacity:1;"/>
</svg>
