<svg width="46" height="60" viewBox="0 0 46 60" fill="none" xmlns="http://www.w3.org/2000/svg">
<path d="M45.9999 26.1647C45.9999 42.2548 32.1308 55.117 26.9484 59.3718C25.8626 60.2521 24.2832 60.2032 23.2714 59.2496L23.1233 59.1273C21.9634 58.0514 21.9388 56.2663 23.0493 55.1415C26.6029 51.6447 30.9463 44.9691 30.9463 39.3693C30.9463 34.7722 17.0525 34.4787 17.0525 21.861C17.0525 14.4029 23.8637 8.24072 30.9463 8.24072C39.7811 8.24072 45.9999 16.2613 45.9999 26.1647Z" fill="#FFF4EF" style="fill:#FFF4EF;fill:color(display-p3 1.0000 0.9562 0.9356);fill-opacity:1;"/>
<path d="M28.0837 17.386C28.0837 32.987 14.6341 45.458 9.59979 49.5661C8.53863 50.422 7.00858 50.3731 6.02146 49.4683L5.89807 49.3461C4.76287 48.319 4.7382 46.5584 5.82404 45.4825C9.27897 42.0835 13.4743 35.6035 13.4743 30.1749C13.4743 25.7245 0 25.4311 0 13.2046C0 5.96653 6.58906 0 13.4743 0C22.0376 0 28.0837 7.77604 28.0837 17.386Z" fill="#FFF4EF" style="fill:#FFF4EF;fill:color(display-p3 1.0000 0.9562 0.9356);fill-opacity:1;"/>
</svg>
