<svg width="24" height="24" viewBox="0 0 24 24" fill="none" xmlns="http://www.w3.org/2000/svg">
<path d="M16.2656 19.7344V21.1406H2.10938V19.7344C2.10938 15.8511 5.30428 12.7031 9.1875 12.7031C13.0708 12.7031 16.2656 15.8511 16.2656 19.7344Z" fill="#F25800" stroke="#F25800" stroke-width="1.5" stroke-miterlimit="10" stroke-linecap="round" stroke-linejoin="round"/>
<path d="M0.703125 21.1406H23.2969" stroke="#F25800" stroke-width="1.5" stroke-miterlimit="10" stroke-linecap="round" stroke-linejoin="round"/>
<path d="M23.2969 12.7031C23.2969 14.2564 22.0377 15.5156 20.4844 15.5156C18.9311 15.5156 17.6719 14.2564 17.6719 12.7031V8.48438H23.2969V12.7031Z" fill="#F25800" stroke="#F25800" stroke-width="1.5" stroke-miterlimit="10" stroke-linecap="round" stroke-linejoin="round"/>
<path d="M20.4844 21.1406V15.5156" stroke="#F25800" stroke-width="1.5" stroke-miterlimit="10" stroke-linecap="round" stroke-linejoin="round"/>
<path d="M9.1875 11.2969V12.7031" stroke="#F25800" stroke-width="1.5" stroke-miterlimit="10" stroke-linecap="round" stroke-linejoin="round"/>
<path d="M6.375 9.89062C6.375 9.11395 7.00462 8.48438 7.78125 8.48438H13.4531C14.2297 8.48438 14.8594 7.8548 14.8594 7.07812C14.8594 6.30145 14.2297 5.67188 13.4531 5.67188H10.5937C9.81712 5.67188 9.1875 5.0423 9.1875 4.26562V2.85938" stroke="#F25800" stroke-width="1.5" stroke-miterlimit="10" stroke-linecap="round" stroke-linejoin="round"/>
</svg>
