<svg width="30" height="30" viewBox="0 0 30 30" fill="none" xmlns="http://www.w3.org/2000/svg">
<g clip-path="url(#clip0_1119_5146)">
<path d="M15 30C23.2843 30 30 23.2843 30 15C30 6.71573 23.2843 0 15 0C6.71573 0 0 6.71573 0 15C0 23.2843 6.71573 30 15 30Z" fill="#F0F0F0" style="fill:#F0F0F0;fill:color(display-p3 0.9412 0.9412 0.9412);fill-opacity:1;"/>
<path d="M14.3478 15H29.9999C29.9999 13.6461 29.8195 12.3346 29.4832 11.0869H14.3478V15Z" fill="#D80027" style="fill:#D80027;fill:color(display-p3 0.8471 0.0000 0.1529);fill-opacity:1;"/>
<path d="M14.3478 7.17381H27.7983C26.8801 5.67545 25.7061 4.35105 24.3372 3.26074H14.3478V7.17381Z" fill="#D80027" style="fill:#D80027;fill:color(display-p3 0.8471 0.0000 0.1529);fill-opacity:1;"/>
<path d="M15 29.9999C18.5302 29.9999 21.7749 28.7797 24.3372 26.739H5.66272C8.22502 28.7797 11.4698 29.9999 15 29.9999Z" fill="#D80027" style="fill:#D80027;fill:color(display-p3 0.8471 0.0000 0.1529);fill-opacity:1;"/>
<path d="M2.20159 22.8259H27.7984C28.5356 21.623 29.1073 20.3082 29.4832 18.9128H0.516724C0.89272 20.3082 1.46442 21.623 2.20159 22.8259Z" fill="#D80027" style="fill:#D80027;fill:color(display-p3 0.8471 0.0000 0.1529);fill-opacity:1;"/>
<path d="M6.94828 2.34246H8.31521L7.04373 3.26619L7.52941 4.76086L6.25799 3.83713L4.98656 4.76086L5.40609 3.46963C4.2866 4.40215 3.30539 5.49469 2.4968 6.71203H2.93479L2.12543 7.30002C1.99934 7.51037 1.8784 7.72406 1.7625 7.94092L2.14898 9.13043L1.42793 8.60654C1.24869 8.98629 1.08475 9.37459 0.937383 9.77098L1.36318 11.0816H2.93479L1.6633 12.0053L2.14898 13.5L0.877559 12.5763L0.115957 13.1296C0.0397266 13.7424 0 14.3665 0 15H15C15 6.71578 15 5.73914 15 0C12.0368 0 9.27451 0.85957 6.94828 2.34246ZM7.52941 13.5L6.25799 12.5763L4.98656 13.5L5.47225 12.0053L4.20076 11.0816H5.77236L6.25799 9.58693L6.74361 11.0816H8.31521L7.04373 12.0053L7.52941 13.5ZM7.04373 7.63576L7.52941 9.13043L6.25799 8.2067L4.98656 9.13043L5.47225 7.63576L4.20076 6.71203H5.77236L6.25799 5.21736L6.74361 6.71203H8.31521L7.04373 7.63576ZM12.9098 13.5L11.6384 12.5763L10.367 13.5L10.8527 12.0053L9.58119 11.0816H11.1528L11.6384 9.58693L12.124 11.0816H13.6956L12.4242 12.0053L12.9098 13.5ZM12.4242 7.63576L12.9098 9.13043L11.6384 8.2067L10.367 9.13043L10.8527 7.63576L9.58119 6.71203H11.1528L11.6384 5.21736L12.124 6.71203H13.6956L12.4242 7.63576ZM12.4242 3.26619L12.9098 4.76086L11.6384 3.83713L10.367 4.76086L10.8527 3.26619L9.58119 2.34246H11.1528L11.6384 0.847793L12.124 2.34246H13.6956L12.4242 3.26619Z" fill="#0052B4" style="fill:#0052B4;fill:color(display-p3 0.0000 0.3216 0.7059);fill-opacity:1;"/>
</g>
<defs>
<clipPath id="clip0_1119_5146">
<rect width="30" height="30" fill="white" style="fill:white;fill-opacity:1;"/>
</clipPath>
</defs>
</svg>
