<svg width="254" height="260" viewBox="0 0 254 260" fill="none" xmlns="http://www.w3.org/2000/svg">
<path d="M0.502796 259.836C0.224394 259.836 0 259.611 0 259.333C0 259.057 0.224394 258.833 0.502796 258.833H31.8111C32.0952 255.464 33.9275 234.379 35.845 227.317C34.1462 226.57 33.0639 225.749 33.0043 224.86C32.9588 224.158 32.8878 223.437 32.8139 222.701C32.6322 220.846 32.4418 218.917 32.6236 217.448C32.8452 215.673 33.5753 214.522 35.3451 214.744C35.6207 214.778 35.9616 214.82 36.4076 214.872C40.8251 215.403 54.9664 217.099 62.9065 218.988C63.9037 219.227 64.8098 219.474 65.5967 219.732C65.9092 217.374 66.2246 214.588 66.5313 211.605C67.7018 200.208 68.7159 185.998 68.8807 181.538C69.0455 177.135 65.2672 160.726 60.864 149.852C59.6311 146.801 58.3528 144.199 57.1057 142.443C56.117 141.051 55.1853 140.21 54.3614 140.148C51.532 149.769 48.2395 163.615 45.1885 176.444C41.0012 194.06 37.2599 209.784 35.4702 210.502C35.2685 210.582 35.0781 210.579 34.8992 210.5C34.2685 210.218 34.1549 208.511 34.4503 205.787C34.723 203.276 35.2855 199.796 36.061 195.739C39.6801 176.791 47.9212 145.093 52.3018 140.145C52.7109 139.679 53.1483 139.383 53.6057 139.241C55.4096 133.222 57.043 128.887 58.3384 127.532C63.0201 122.637 73.1674 117.055 80.1216 113.231C82.2238 112.075 84.0334 111.081 85.2833 110.331C88.1355 108.618 90.2717 108.018 91.8654 108.334C92.0472 108.371 92.2177 108.416 92.3853 108.473C93.4393 107.856 94.4051 107.274 95.2488 106.726C95.334 105.291 96.0357 103.732 97.1464 101.627C99.8878 96.4308 104.828 96.4308 104.842 96.4308C105.118 96.428 105.345 96.6496 105.345 96.925C105.345 96.9706 105.339 97.016 105.328 97.0586L105.331 97.0614C105.328 97.07 105.041 98.121 104.703 99.655C105.251 99.1437 105.541 98.6069 105.581 97.7944C105.646 96.3967 104.711 93.7548 103.666 90.8004C102.683 88.0164 101.601 84.9598 101.135 82.295C101.126 82.241 101.115 82.1871 101.107 82.1331C100.797 82.1303 100.462 82.0024 100.092 81.7439C99.2145 81.1275 98.0157 79.6417 96.4817 77.2015C94.3483 73.8125 94.0244 70.7956 94.5073 68.6536C94.6749 67.9122 94.9392 67.273 95.2602 66.7531C95.5954 66.2163 95.9959 65.8015 96.4221 65.5344C96.9249 65.2191 97.4589 65.1055 97.9731 65.2219C99.4617 65.5571 100.28 69.3127 100.908 73.5141C100.697 71.2217 100.607 68.8354 100.805 66.6991C101.112 63.401 102.118 60.6767 104.447 59.6994C106.714 58.7477 110.632 58.2166 115.31 58.242C119.586 58.2676 124.509 58.7533 129.395 59.8102C137.511 61.5658 142.156 63.7646 143.727 64.597C144.349 61.5516 146.721 48.8078 143.926 44.2654C142.59 42.0951 140.647 40.9219 138.775 39.7883C136.079 38.1577 133.517 36.6095 132.77 32.4535C132.707 32.1126 132.591 31.7887 132.423 31.4876C131.361 29.5615 128.301 28.4536 124.557 27.9849C120.708 27.5049 116.177 27.715 112.302 28.4138C109.635 28.8939 107.285 29.6041 105.703 30.4734C103.879 31.4791 102.442 34.7459 101.356 38.848C101.294 41.578 101.206 44.3052 101.095 46.896C100.746 55.1286 100.149 62.0175 99.3082 63.3101C99.1435 63.5628 98.9446 63.6907 98.7173 63.7021C98.1605 63.7305 97.8424 62.8584 97.76 61.3471C97.6946 60.1341 97.7117 58.4183 97.8168 56.4041C98.0781 51.3902 98.8934 44.5154 100.356 38.9333C100.55 30.7831 100.538 22.5988 100.308 18.0108C100.03 12.4372 100.317 7.41183 102.584 4.07962C104.887 0.69621 109.154 -0.897437 116.782 0.514416C118.182 0.772975 119.875 1.07403 121.566 1.37518C131.074 3.06543 140.542 4.74717 141.775 7.51696C141.875 7.73853 141.929 7.96292 141.934 8.19021C145.082 8.80945 148.343 10.2043 151.627 12.6247C152.275 13.1019 152.925 13.6219 153.579 14.1844C156.985 17.1217 159.101 20.0108 160.209 22.6954C160.672 23.2891 161.084 23.9282 161.45 24.6157C163.848 29.1496 164.098 35.7375 163.337 45.0012C161.93 62.1454 156.482 63.3953 150.908 64.6708C150.422 64.7816 149.937 64.8924 149.405 65.0288C148.863 65.168 148.366 65.4351 147.905 65.8015C148.528 66.1225 149.101 66.7134 149.584 67.5883C149.883 68.1337 150.053 68.7417 150.116 69.3865C150.34 71.6165 149.278 74.3323 147.957 76.5993C146.636 78.8663 145.025 80.7156 144.178 81.1786C144.016 81.2695 143.86 81.3207 143.715 81.3377C143.355 81.3718 143.088 81.1702 142.917 80.7696C142.738 80.3549 142.645 79.6021 142.639 78.6419C142.636 77.7215 142.713 76.5937 142.88 75.3779C143.272 72.5542 144.156 69.2389 145.667 66.9037C145.312 67.1481 144.96 67.5089 144.624 67.9805C143.505 69.5458 142.613 72.2501 142.386 75.9404C142.159 79.6306 141.559 83.7894 140.267 87.8263C142.514 92.1357 142.003 100.113 141.863 101.794C144.721 103.49 169.814 118.419 181.203 126.441C190.972 133.324 190.569 137.816 189.68 141.225C196.222 151.477 207.895 178.314 207.937 178.41C208.034 178.635 207.954 178.891 207.761 179.024C207.753 179.03 206.375 179.961 205.727 180.978C207.096 180.217 208.852 179.606 210.545 179.55C211.676 179.513 212.372 179.837 212.71 180.339C212.98 180.746 213.008 181.237 212.835 181.74C212.684 182.174 212.377 182.62 211.951 183.018C210.829 184.058 208.804 184.831 206.517 184.157C205.517 183.862 204.892 183.49 204.537 183.072C204.366 183.245 204.236 183.41 204.153 183.564C204.082 183.692 204.048 183.78 204.068 183.814C204.091 183.859 204.187 183.902 204.369 183.944C205.929 184.291 214.511 185.549 220.959 185.64C223.391 185.674 225.49 185.561 226.718 185.191C225.59 184.811 224.581 184.211 224.442 183.271L224.439 183.251C224.419 183.132 224.377 183.001 224.311 182.865C224.149 183.03 223.945 183.186 223.703 183.328C223.24 183.601 222.624 183.836 221.931 184.015C219.954 184.527 217.266 184.569 215.59 183.635C214.508 183.033 213.687 182.257 213.235 181.462C212.934 180.933 212.789 180.39 212.832 179.871C212.877 179.328 213.119 178.825 213.59 178.405C214.084 177.962 214.837 177.615 215.883 177.433C215.923 177.425 215.971 177.419 216.025 177.41C218.093 177.104 220.346 178.001 222.121 179.217C222.758 179.652 223.337 180.138 223.828 180.626L223.834 180.62C224.132 180.422 224.661 180.396 225.266 180.521C225.786 180.629 226.399 180.848 226.968 181.157C228.314 181.893 229.436 183.129 228.82 184.68C229.578 184.788 230.166 184.822 230.172 184.822C230.448 184.839 230.658 185.075 230.641 185.35C230.641 185.359 230.638 185.37 230.638 185.379C230.635 185.407 229.828 192.137 228.351 196.938C231.987 196.929 236.092 197.091 239.91 197.401C246.833 197.961 252.867 199.054 253.657 200.563C253.813 200.864 253.873 201.179 253.842 201.506C253.785 202.128 253.398 202.77 252.736 203.395C252.131 203.969 251.279 204.549 250.228 205.1C246.183 207.219 239.069 208.957 231.808 208.276C223.681 207.512 198.049 206.145 183.904 205.904L183.56 205.898C183.765 206.034 183.97 206.171 184.177 206.313C186.478 206.128 190.302 206.321 194.034 206.665C196.486 206.889 199.111 208.088 201.358 209.511C201.386 208.989 201.543 208.503 201.855 208.083C202.344 207.418 203.205 206.946 204.551 206.801C208.625 206.361 210.687 209.074 212.113 210.946C212.707 211.727 213.167 212.332 213.457 212.347C213.835 212.361 210.537 208.668 210.528 208.659C210.446 208.563 210.397 208.438 210.403 208.301C210.417 208.026 210.653 207.813 210.929 207.827C210.966 207.83 223.976 208.509 227.772 208.171C228.726 208.085 229.343 208.159 229.686 208.344C230.095 208.563 230.229 208.89 230.132 209.29C230.07 209.546 229.885 209.816 229.604 210.083C228.865 210.784 227.289 211.642 225.579 212.222C225.113 212.381 224.726 212.503 224.365 212.617C223.167 212.994 222.246 213.287 221.337 213.952C222.03 214.298 222.454 215.19 222.758 216.719C223.116 218.503 223.187 220.855 222.187 223.497C221.198 226.111 219.161 228.997 215.309 231.869C211.869 234.434 208.696 235.712 205.983 236.121C202.562 236.633 199.858 235.758 198.244 234.306C196.864 233.062 194.585 230.96 192.478 228.434C190.347 225.886 188.39 222.906 187.682 219.943C186.634 215.534 179.623 210.407 176.009 207.765C175.075 207.08 174.365 206.56 174.004 206.228C173.907 206.143 173.848 206.04 173.816 205.927C173.657 205.308 174.782 204.992 176.862 204.916C177.683 204.887 178.683 204.873 179.827 204.87C179.146 204.538 178.521 204.293 177.984 204.154C176.197 203.694 172.515 203.069 168.373 202.384C167.462 209.597 167.808 217.634 172.262 224.594C180.239 237.059 175.507 255.192 174.433 258.834H230.45C230.726 258.834 230.95 259.058 230.95 259.334C230.95 259.612 230.726 259.836 230.45 259.836H173.76V259.834C173.708 259.834 173.657 259.828 173.606 259.811C173.342 259.726 173.197 259.444 173.282 259.183C173.302 259.123 180.055 238.621 171.422 225.13C166.791 217.898 166.439 209.614 167.382 202.219L166.624 202.094C159.879 200.984 152.468 199.762 149.962 198.833C149.252 198.572 148.798 198.276 148.556 197.958C148.19 197.478 148.241 197.001 148.622 196.538C148.889 196.211 149.349 195.904 149.951 195.615C151.815 194.725 155.204 193.933 158.141 193.487C160.308 193.157 164.061 193.68 167.839 194.203C168.172 194.248 168.507 194.296 168.839 194.342C169.186 192.842 169.544 191.427 169.871 190.126C170.311 188.393 170.697 186.859 170.939 185.604C171.206 184.217 171.632 183.376 172.16 182.959C172.757 182.49 173.424 182.521 174.118 182.919C174.498 183.135 174.885 183.467 175.271 183.891C175.334 183.868 175.405 183.856 175.476 183.862C175.541 183.868 197.952 185.646 200.347 186.095C200.392 186.104 200.421 186.104 200.435 186.092C200.574 185.981 200.645 185.638 200.659 185.132V185.092C197.631 184.979 191.1 184.638 185.648 184.112C181.774 183.737 178.427 183.263 177.211 182.692C176.26 182.249 175.993 181.837 176.2 181.394C176.399 180.97 177.072 180.837 177.961 180.658C179.447 180.36 181.711 179.905 181.924 178.405C182.157 176.78 182.691 175.351 183.302 174.553C183.566 174.206 183.853 173.959 184.157 173.837C184.166 173.834 184.177 173.831 184.185 173.826C184.552 173.686 184.918 173.718 185.262 173.953C185.589 174.172 185.878 174.584 186.109 175.226C186.341 175.877 186.432 176.496 186.515 177.053L186.535 177.186C186.697 177.13 186.858 177.073 187.02 177.016C188.594 176.476 190.125 175.948 189.864 173.459C189.284 167.954 192.676 165.741 192.685 165.735C192.915 165.582 193.225 165.644 193.378 165.872C193.475 166.016 193.486 166.19 193.426 166.337C193.318 166.644 192.083 170.451 195.986 173.133C197.761 174.354 199.241 176.726 200.244 179.141C200.295 179.183 200.347 179.223 200.395 179.263C200.778 179.584 201.079 179.899 201.287 180.178C201.531 180.502 201.67 180.803 201.696 181.033C201.738 181.385 201.602 181.635 201.281 181.752C201.256 181.76 201.21 181.771 201.15 181.786C201.227 182.075 201.298 182.359 201.358 182.635C201.474 183.163 201.559 183.663 201.608 184.124C201.878 184.132 202.079 184.135 202.207 184.135C203.934 184.135 204.207 189.618 204.437 194.265C204.525 196.047 204.608 197.697 204.744 198.802C211.144 198.555 216.837 198.106 219.283 197.566C221.03 197.183 223.965 196.981 227.399 196.944C228.57 193.109 229.357 187.484 229.578 185.774C229.22 185.737 228.709 185.672 228.149 185.561C226.939 186.416 224.192 186.686 220.948 186.641C214.428 186.547 205.736 185.271 204.153 184.919C203.659 184.808 203.344 184.584 203.182 184.277C202.994 183.916 203.042 183.504 203.278 183.078C203.46 182.752 203.761 182.405 204.156 182.061C204.159 180.621 206.068 179.036 206.861 178.442C205.457 175.235 195.08 151.628 189.415 142.185C189.276 142.691 189.148 143.171 189.077 143.631C188.728 145.904 186.146 159.664 183.535 167.798C182.901 169.775 182.259 171.428 181.643 172.522C180.887 173.863 180.092 174.448 179.274 173.959C179.007 173.797 178.765 173.51 178.549 173.084C178.257 172.493 178.049 171.726 177.919 170.817C177.297 166.48 178.382 158.585 180.018 151.585C181.671 144.512 183.938 138.293 185.648 137.438C185.782 137.373 185.916 137.327 186.046 137.31C186.665 137.219 187.671 138.268 188.915 140.072C189.489 137.063 188.955 133.126 180.626 127.26C168.592 118.78 141.165 102.542 141.085 102.496V102.494C140.923 102.4 140.824 102.215 140.844 102.016C140.844 101.991 141.653 93.9088 139.801 89.1931C139.415 90.2527 138.98 91.301 138.486 92.3265C136.506 96.4343 133.608 100.15 129.418 102.764C126.549 104.55 123.626 105.38 120.924 105.536C118.35 105.681 115.978 105.218 114.044 104.383C112.078 103.536 110.55 102.303 109.695 100.934C109.243 100.21 108.979 99.4427 108.936 98.67C108.868 97.5081 109.197 97.0224 109.868 96.9826C110.504 96.9457 111.365 97.5394 112.507 98.3263C115.211 100.193 119.677 103.272 124.526 100.534C128.594 98.2382 131.31 93.8805 133.39 90.5368C134.577 88.6335 135.563 87.0512 136.537 86.27C137.571 85.4433 138.534 85.4348 139.537 86.6904C139.546 86.7017 139.554 86.7103 139.563 86.7217C140.657 83.0286 141.182 79.2561 141.389 75.8813C141.628 71.9922 142.594 69.1032 143.81 67.4015C144.378 66.6033 145.011 66.0522 145.662 65.7625C146.028 65.6005 146.395 65.5182 146.761 65.5182C147.457 64.8051 148.256 64.2909 149.159 64.058C149.636 63.9386 150.162 63.8165 150.684 63.6972C155.897 62.504 160.994 61.3365 162.34 44.9253C163.019 36.6472 162.888 30.5793 161.127 26.2897C161.312 28.2499 160.942 30.0424 160.158 31.5878C159.275 33.3235 157.872 34.7467 156.141 35.7552C153.488 37.3005 150.062 37.8716 146.574 37.096C141.764 36.0279 138.173 32.0252 136.776 27.8549C136.265 26.3351 136.043 24.7897 136.159 23.3523C136.276 21.8865 136.739 20.5286 137.6 19.4093C139.185 17.3497 142.088 16.1452 146.599 16.6678C151.576 17.2445 155.233 18.4377 157.863 20.4063C156.71 18.6422 155.091 16.807 152.926 14.9406C152.298 14.4008 151.667 13.8981 151.037 13.4321C147.861 11.0914 144.71 9.75049 141.676 9.16251C141.148 10.0999 139.799 11.0914 137.435 12.1425C132.861 14.1822 128.288 16.7644 124.597 18.8467C120.228 21.3125 117.047 23.1079 116.172 22.4659C115.578 22.0283 115.902 20.9347 117.385 18.9234C117.754 18.4234 118.16 17.9121 118.604 17.3979C121.723 13.7816 126.566 10.0885 132.33 8.54889C135.018 7.83023 137.901 7.57739 140.898 8.01203C140.89 7.98366 140.878 7.9552 140.864 7.92684C139.847 5.6428 130.64 4.00657 121.396 2.36171C119.868 2.09183 118.342 1.81904 116.601 1.49804C109.442 0.171374 105.49 1.59185 103.411 4.64284C101.297 7.74775 101.036 12.58 101.306 17.9632C101.505 21.9091 101.542 28.4968 101.425 35.4426C102.457 32.5905 103.715 30.4287 105.223 29.5991C106.897 28.6759 109.351 27.9316 112.127 27.4316C116.098 26.7158 120.74 26.4999 124.68 26.9914C128.722 27.497 132.063 28.7583 133.302 31.0082C133.518 31.4003 133.671 31.8207 133.753 32.278C134.421 35.9852 136.796 37.4199 139.293 38.9312C141.27 40.1272 143.318 41.3657 144.779 43.7435C148.173 49.2575 144.577 65.4243 144.568 65.4727C144.557 65.5238 144.534 65.5778 144.506 65.6261C144.361 65.8619 144.054 65.9358 143.818 65.7936C143.804 65.7851 139.236 62.9614 129.182 60.7882C124.359 59.7457 119.51 59.2655 115.305 59.2429C110.766 59.2173 106.99 59.7201 104.834 60.6235C102.92 61.4274 102.076 63.8392 101.8 66.788C101.513 69.8675 101.854 73.5121 102.26 76.6001C102.539 78.6994 102.553 80.2079 102.294 81.0659C102.229 81.2874 102.144 81.4749 102.039 81.6284C102.067 81.7988 102.093 81.9636 102.121 82.1227C102.576 84.7106 103.641 87.7247 104.61 90.4689C105.689 93.5199 106.655 96.2471 106.578 97.8435C106.502 99.477 105.777 100.216 104.391 101.17C103.786 104.298 103.249 108.403 104.079 110.437C104.311 111.008 104.55 111.715 104.811 112.491C106.147 116.468 108.107 122.303 113.933 121.223C117.655 120.536 118.271 119.465 119.015 118.172C119.757 116.882 120.612 115.402 123.947 113.865C127.35 112.303 131.245 108.977 134.287 106.377C136.645 104.363 138.509 102.772 139.438 102.661C139.995 102.596 140.327 102.835 140.401 103.446C140.563 104.823 139.679 106.568 137.577 108.562C135.759 110.292 133 112.243 129.188 114.349C121.47 118.607 120.819 124.092 120.816 124.107C120.785 124.345 120.589 124.524 120.359 124.541C120.004 124.575 106.254 125.902 99.8228 124.672C96.9196 124.115 94.7123 123.021 92.9793 122.164C91.0249 121.195 89.7465 120.561 88.9284 121.496C88.0278 122.524 86.9171 132.666 85.4598 145.975C84.1275 158.148 82.5082 172.957 80.4174 186.016C78.1902 199.944 77.6675 216.435 78.6305 229.613C79.5453 242.121 81.7468 251.578 85.0337 252.842C88.5136 254.183 100.723 254.55 113.944 254.186C127.327 253.814 141.707 252.686 149.108 251.041C153.661 250.03 157.462 248.99 160.562 248.144C162.564 247.598 164.277 247.13 165.695 246.803C169.601 245.9 171.663 245.979 172.158 248.132C172.649 250.252 169.516 251.919 162.008 253.34C154.829 254.695 143.514 255.93 127.344 257.232C111.152 258.535 99.3399 258.501 90.7266 257.297C82.0309 256.081 76.5652 253.672 73.1335 250.24C69.0712 246.178 70.4063 229.818 71.8892 211.662C72.9488 198.68 74.0852 184.774 73.4005 173.92C72.6164 161.488 68.8212 152.943 65.8752 146.307C62.6112 138.955 60.3612 133.887 64.1793 128.413C68.8183 121.76 79.4457 115.783 87.772 111.101C88.9111 110.459 90.0077 109.843 91.036 109.255C89.7434 109.241 88.0305 109.849 85.7948 111.189C84.4994 111.968 82.6955 112.959 80.6019 114.11C73.7015 117.905 63.6282 123.447 59.0602 128.223C57.8756 129.461 56.3529 133.507 54.6513 139.18C55.7336 139.37 56.833 140.333 57.9181 141.864C59.2163 143.694 60.5317 146.364 61.793 149.478C66.236 160.451 70.0454 177.084 69.8807 181.573C69.7131 186.053 68.6961 200.296 67.5257 211.705C67.2104 214.779 66.8808 217.651 66.5542 220.08C68.0939 220.687 68.9433 221.352 68.7729 222.068C68.3723 223.75 66.6934 226.395 65.614 227.696C65.3242 228.048 65.0629 228.318 64.8668 228.46C64.1879 228.957 63.7958 228.86 63.8243 227.997C63.83 227.758 63.9663 227.329 64.2703 226.673C64.6396 225.881 65.0458 223.702 65.4662 220.693C64.6851 220.463 63.739 220.219 62.6737 219.963C54.7877 218.085 40.6917 216.395 36.2913 215.867C35.7885 215.807 35.4078 215.762 35.2232 215.739C34.2005 215.611 33.7687 216.387 33.6181 217.571C33.4476 218.943 33.6323 220.81 33.8084 222.605C33.8851 223.369 33.9589 224.119 34.0016 224.793C34.0442 225.415 34.8169 226.006 36.0697 226.562C36.3679 225.636 36.6691 225.08 36.9673 225.02C37.8849 224.838 41.5296 225.736 45.8334 226.798C52.2536 228.381 60.1737 230.332 61.9236 229.574C62.4491 229.344 62.8099 229.508 63.0287 230.008C63.6651 231.469 61.702 238.883 59.4294 245.942C57.1397 253.058 54.4325 259.876 53.6768 259.99C53.2989 260.047 53.0688 259.859 53.0007 259.408C52.6116 256.814 58.5061 235.838 59.5629 232.108C56.5744 231.775 42.9755 230.156 36.4787 227.585C34.8538 234.128 32.8198 258.771 32.7715 259.359C32.7601 259.624 32.5386 259.837 32.2715 259.837L0.502796 259.836ZM37.1602 226.002C37.0125 226.033 36.8563 226.323 36.6915 226.82C43.2311 229.368 59.4747 231.092 60.2274 231.172C60.2672 231.175 60.3041 231.181 60.3439 231.192C60.608 231.266 60.7615 231.544 60.6876 231.811C60.6678 231.874 54.7702 252.523 54.0487 258.106C54.9464 256.094 56.7644 250.964 58.4802 245.635C60.6194 238.99 62.5084 232.098 62.1562 230.55C59.858 231.283 51.9975 229.345 45.5944 227.766C41.4101 226.735 37.8677 225.86 37.1602 226.002ZM67.7982 221.834C67.8522 221.607 67.3437 221.323 66.4261 220.999C66.0994 223.297 65.7784 225.121 65.4688 226.24C66.4119 224.931 67.5027 223.079 67.7982 221.834ZM53.188 140.656C53.1426 140.701 53.0943 140.753 53.0488 140.804C48.782 145.627 40.6431 177.083 37.0438 195.929C36.2739 199.963 35.7115 203.412 35.4444 205.895C35.2371 207.824 35.1575 209.088 35.2399 209.466C36.6575 207.991 40.2283 192.972 44.214 176.214C47.1797 163.74 50.3728 150.315 53.188 140.656ZM93.4108 109.03C94.226 109.663 94.8028 110.669 95.1919 111.987C95.4419 112.828 95.868 113.913 96.422 115.061C97.2884 116.862 98.4588 118.802 99.7401 120.188C100.936 121.478 102.211 122.273 103.362 121.932C103.464 121.901 103.567 121.861 103.672 121.813C105.174 121.089 105.246 119.896 104.444 118.467C103.521 116.816 101.541 114.876 99.1861 112.924C96.8056 110.953 95.6209 109.473 95.3198 107.868C94.7288 108.24 94.0896 108.629 93.4108 109.03ZM94.2346 112.271C93.851 110.975 93.2772 110.058 92.4449 109.598C91.1552 110.345 89.7432 111.137 88.2604 111.973C80.0221 116.606 69.5027 122.523 64.9972 128.983C61.5002 133.997 63.6592 138.855 66.7869 145.903C69.7668 152.613 73.6019 161.255 74.3973 173.856C75.0876 184.79 73.9514 198.727 72.8889 211.738C71.4258 229.652 70.1078 245.793 73.8434 249.532C77.1216 252.81 82.4055 255.123 90.8625 256.304C99.399 257.498 111.14 257.532 127.264 256.233C143.411 254.932 154.692 253.702 161.823 252.356C168.623 251.069 171.515 249.793 171.183 248.353C170.868 246.987 169.174 247.024 165.916 247.776C164.476 248.109 162.791 248.569 160.825 249.106C157.712 249.958 153.897 250.998 149.32 252.015C141.858 253.674 127.406 254.81 113.972 255.182C100.643 255.552 88.2803 255.16 84.6753 253.773C80.9851 252.356 78.5733 242.561 77.6329 229.683C76.6643 216.443 77.1898 199.867 79.4311 185.859C81.5134 172.845 83.1326 158.039 84.465 145.869C85.9422 132.381 87.0671 122.106 88.1751 120.839C89.5018 119.325 91.0501 120.092 93.4193 121.265C95.101 122.097 97.2373 123.157 100.01 123.688C105.768 124.79 117.648 123.785 119.901 123.58C120.219 122.171 121.785 117.291 128.708 113.47C132.443 111.41 135.131 109.51 136.889 107.837C138.667 106.149 139.466 104.743 139.415 103.689C138.693 103.928 137.02 105.357 134.935 107.135C131.85 109.771 127.895 113.149 124.361 114.774C121.316 116.174 120.549 117.509 119.878 118.669C119.009 120.18 118.288 121.433 114.112 122.205C107.436 123.441 105.311 117.118 103.862 112.808C103.612 112.064 103.385 111.385 103.149 110.811C102.328 108.788 102.697 105.044 103.24 101.933C102.018 102.735 100.428 103.808 98.4731 105.584C97.9021 106.101 97.1493 106.663 96.2488 107.266C96.2517 107.342 96.2602 107.419 96.2686 107.493C96.4561 108.908 97.5328 110.254 99.8253 112.155C102.263 114.174 104.325 116.206 105.317 117.978C106.436 119.972 106.3 121.657 104.106 122.711C103.953 122.785 103.8 122.845 103.643 122.89C102.061 123.362 100.45 122.424 99.0073 120.865C97.6493 119.396 96.4222 117.367 95.5216 115.495C94.9447 114.299 94.4987 113.16 94.2346 112.271ZM98.0327 102.092C97.2003 103.666 96.6151 104.899 96.3708 105.967C96.9304 105.569 97.4133 105.195 97.7997 104.842C99.9473 102.893 101.652 101.774 102.933 100.936C103.129 100.805 103.316 100.683 103.493 100.564C103.754 99.2601 104.015 98.1607 104.183 97.4931C102.868 97.6948 99.9047 98.5414 98.0327 102.092ZM100.939 81.0904C100.768 79.9654 100.601 78.6871 100.428 77.3661C99.7543 72.2527 98.9957 66.4745 97.7515 66.1961C97.5072 66.1393 97.2288 66.2074 96.9533 66.3807C96.6551 66.5682 96.3653 66.8722 96.1096 67.2813C95.8454 67.713 95.6239 68.2472 95.4818 68.8749C95.0472 70.7982 95.3569 73.5395 97.3255 76.6701C98.7857 78.991 99.8965 80.383 100.669 80.9256C100.774 81.0023 100.865 81.0562 100.939 81.0904ZM100.2 44.2084C99.4502 48.4554 98.9985 52.9239 98.8138 56.4551C98.7115 58.4351 98.6946 60.1169 98.7598 61.2958C98.7769 61.6339 98.7513 61.9208 98.7201 62.1453C99.328 60.0459 99.7939 53.9865 100.098 46.8561C100.135 45.9867 100.169 45.1033 100.2 44.2084ZM137.028 11.2298C138.974 10.3633 140.122 9.62471 140.627 8.98843C137.812 8.59639 135.111 8.84072 132.588 9.51397C127.04 10.9997 122.367 14.5621 119.358 18.0533C118.935 18.542 118.546 19.0305 118.191 19.5135C117.12 20.9651 116.697 21.61 116.762 21.6582C117.12 21.9196 120.063 20.2606 124.108 17.9766C127.821 15.8801 132.426 13.2807 137.028 11.2298ZM160.047 25.7093C159.916 24.9082 159.686 24.0759 159.345 23.2179C156.868 20.1299 152.8 18.3943 146.485 17.6613C142.375 17.1841 139.769 18.2238 138.389 20.0192C137.656 20.9736 137.258 22.1498 137.156 23.4282C137.054 24.7349 137.255 26.1467 137.721 27.5387C139.022 31.4164 142.346 35.135 146.786 36.1208C150.022 36.8395 153.192 36.314 155.638 34.8879C157.206 33.9761 158.473 32.6948 159.263 31.1352C160.056 29.5785 160.374 27.7404 160.047 25.7093ZM147.124 66.5683C145.329 68.6677 144.301 72.4033 143.872 75.511C143.71 76.6872 143.636 77.7695 143.639 78.6416C143.641 79.3604 143.693 79.92 143.789 80.2467C144.536 79.7667 145.908 78.1275 147.093 76.0962C148.326 73.9799 149.32 71.4742 149.121 69.4857C149.07 68.9715 148.94 68.4943 148.707 68.071C148.3 67.3296 147.84 66.8608 147.36 66.6506C147.283 66.6165 147.204 66.5882 147.124 66.5683ZM137.585 91.8911C138.207 90.6014 138.735 89.2719 139.184 87.9225C139.051 87.7066 138.909 87.5021 138.758 87.3118C138.21 86.6271 137.699 86.6186 137.159 87.0504C136.326 87.7151 135.378 89.2378 134.239 91.0644C132.099 94.4989 129.31 98.9789 125.014 101.402C119.62 104.447 114.839 101.149 111.938 99.1493C110.958 98.4731 110.22 97.9618 109.921 97.9788C109.904 97.9816 109.907 98.1634 109.933 98.6123C109.967 99.2117 110.18 99.8196 110.543 100.405C111.291 101.604 112.66 102.695 114.438 103.461C116.245 104.24 118.461 104.675 120.867 104.535C123.412 104.39 126.171 103.606 128.886 101.913C132.903 99.4106 135.682 95.8426 137.585 91.8911ZM188.503 141.741C188.569 141.508 188.634 141.27 188.699 141.025C187.563 139.258 186.68 138.23 186.188 138.298C186.16 138.304 186.128 138.312 186.097 138.329C184.66 139.048 182.586 144.988 180.992 151.812C179.379 158.712 178.305 166.465 178.91 170.678C179.024 171.487 179.2 172.152 179.441 172.635C179.566 172.885 179.683 173.038 179.788 173.101C179.989 173.22 180.333 172.811 180.773 172.033C181.353 171.004 181.967 169.413 182.583 167.49C185.174 159.425 187.739 145.744 188.086 143.48C188.171 142.926 188.333 142.352 188.503 141.741ZM205.477 182.302C205.633 182.657 206.034 182.972 206.798 183.197C208.696 183.756 210.357 183.131 211.269 182.285C211.579 181.998 211.795 181.694 211.891 181.416C211.962 181.205 211.965 181.024 211.877 180.896C211.727 180.666 211.315 180.524 210.576 180.546C208.718 180.609 206.778 181.41 205.477 182.302ZM227.806 184.498C228.337 183.47 227.487 182.578 226.49 182.035C226.01 181.771 225.499 181.589 225.067 181.498C224.891 181.464 224.738 181.438 224.621 181.433C224.652 181.492 224.675 181.555 224.695 181.615C225.093 182.151 225.351 182.66 225.425 183.078C225.428 183.086 225.431 183.103 225.433 183.126C225.539 183.83 226.672 184.251 227.806 184.498ZM223.198 182.467C223.493 182.291 223.686 182.123 223.732 181.978C223.215 181.347 222.453 180.657 221.556 180.041C219.959 178.947 217.957 178.135 216.17 178.402C216.138 178.404 216.099 178.41 216.056 178.419C215.201 178.569 214.613 178.825 214.255 179.146C213.991 179.385 213.854 179.657 213.832 179.95C213.806 180.265 213.903 180.615 214.104 180.967C214.468 181.609 215.155 182.248 216.073 182.762C217.516 183.566 219.902 183.507 221.684 183.049C222.289 182.893 222.814 182.694 223.198 182.467ZM228.021 197.938C227.348 199.855 226.55 201.307 225.641 201.611C225.513 201.653 225.377 201.693 225.237 201.724C223.348 202.173 218.34 202.503 213.701 202.378C208.917 202.25 204.474 201.588 203.943 199.989C203.926 199.94 203.915 199.903 203.912 199.884C203.906 199.867 203.903 199.852 203.9 199.835C200.747 199.946 197.457 200.012 194.321 200.012C186.188 200.012 179.041 199.56 177.833 198.421C177.308 197.926 176.879 197.068 176.527 196.012C174.689 196.083 172.209 195.804 169.612 195.455C169.195 197.327 168.802 199.321 168.507 201.392C172.674 202.08 176.387 202.713 178.228 203.187C179.245 203.446 180.523 204.051 181.93 204.878C182.563 204.883 183.228 204.895 183.918 204.906C198.085 205.145 223.758 206.514 231.899 207.281C238.956 207.946 245.853 206.264 249.768 204.216C250.731 203.71 251.506 203.185 252.049 202.673C252.535 202.21 252.813 201.784 252.847 201.418C252.861 201.279 252.836 201.148 252.773 201.026C252.162 199.864 246.455 198.935 239.831 198.398C235.916 198.08 231.703 197.918 228.021 197.938ZM225.328 200.662C225.965 200.452 226.55 199.403 227.07 197.946C223.86 197.992 221.135 198.185 219.499 198.546C217.03 199.088 211.343 199.543 204.946 199.795C205.559 200.812 209.474 201.264 213.724 201.381C218.283 201.503 223.178 201.185 225.005 200.75C225.144 200.716 225.255 200.687 225.328 200.662ZM203.741 198.838C203.605 197.688 203.525 196.06 203.437 194.31C203.23 190.103 202.983 185.137 202.207 185.137C202.088 185.137 201.903 185.134 201.656 185.126V185.157C201.636 185.955 201.446 186.56 201.057 186.87C200.81 187.069 200.514 187.143 200.165 187.077C198.077 186.685 179.887 185.219 176.092 184.915C177.93 187.498 179.654 191.765 179.87 193.861C179.998 195.102 179.083 195.713 177.518 195.929C177.799 196.705 178.129 197.324 178.518 197.69C179.518 198.636 186.407 199.008 194.321 199.008C197.406 199.009 200.639 198.946 203.741 198.838ZM185.742 183.117C191.114 183.637 197.551 183.972 200.596 184.089C200.551 183.708 200.477 183.291 200.381 182.85C200.315 182.563 200.244 182.265 200.159 181.961C198.165 182.271 193.915 182.782 190.256 182.811C188.549 182.822 186.958 182.731 185.762 182.473C184.398 182.174 183.481 181.632 183.333 180.743C183.299 180.524 183.31 180.297 183.373 180.055C183.734 178.711 184.586 178.032 185.58 177.569C185.56 177.447 185.543 177.325 185.523 177.197C185.447 176.68 185.364 176.106 185.168 175.561C185.015 175.138 184.859 174.888 184.702 174.783C184.654 174.748 184.6 174.743 184.543 174.76L184.532 174.766C184.398 174.82 184.251 174.956 184.097 175.158C183.58 175.834 183.123 177.086 182.916 178.544C182.6 180.745 179.919 181.282 178.154 181.637C177.885 181.692 177.646 181.725 177.467 181.751C177.521 181.751 177.578 181.762 177.632 181.788C178.734 182.302 181.967 182.751 185.742 183.117ZM177.106 181.816C177.061 181.91 177.166 181.813 177.328 181.768C177.191 181.788 177.112 181.799 177.106 181.816ZM186.748 178.174C187.043 178.921 187.932 179.112 191.293 177.933C194.375 176.851 196.929 177.328 198.722 178.194C197.844 176.436 196.716 174.845 195.418 173.956C192.469 171.928 192.068 169.314 192.179 167.641C191.412 168.675 190.56 170.504 190.858 173.356C191.205 176.637 189.301 177.291 187.344 177.964C187.145 178.032 186.946 178.1 186.748 178.174ZM191.622 178.876C187.529 180.313 186.339 179.862 185.83 178.572C185.137 178.939 184.572 179.45 184.341 180.313C184.313 180.413 184.307 180.501 184.322 180.578C184.39 180.987 185.018 181.285 185.975 181.492C187.103 181.739 188.617 181.825 190.25 181.813C193.838 181.785 197.952 181.302 199.872 181.009C199.739 180.6 199.588 180.185 199.423 179.771C197.886 178.652 195.154 177.637 191.622 178.876ZM176.046 186.685C176.191 188.964 176.515 192.449 177.211 194.96C178.291 194.838 178.935 194.543 178.876 193.963C178.703 192.285 177.487 189.108 176.046 186.685ZM176.231 195.02C175.316 191.586 175.038 186.839 174.961 185.075C174.498 184.478 174.041 184.023 173.626 183.788C173.296 183.6 173.007 183.566 172.779 183.745C172.436 184.018 172.14 184.66 171.922 185.79C171.672 187.083 171.282 188.626 170.842 190.37C170.521 191.637 170.174 193.014 169.834 194.475C172.237 194.796 174.521 195.054 176.231 195.02ZM181.663 205.875C179.745 205.858 178.123 205.869 176.896 205.915C175.819 205.954 175.029 205.613 174.831 205.625C175.186 205.92 175.813 206.38 176.6 206.957C180.316 209.673 187.523 214.945 188.66 219.712C189.321 222.499 191.199 225.343 193.245 227.791C195.313 230.266 197.554 232.337 198.912 233.561C200.327 234.834 202.741 235.595 205.838 235.129C208.4 234.746 211.414 233.524 214.71 231.067C218.391 228.323 220.323 225.596 221.252 223.144C222.169 220.718 222.104 218.553 221.777 216.914C221.488 215.465 221.155 214.803 220.613 214.781C220.545 214.778 220.468 214.784 220.391 214.795C219.724 215.497 219.019 216.471 218.178 217.891C216.707 220.383 214.931 222.471 212.434 224.187C209.951 225.891 206.764 227.215 202.454 228.189C198.594 229.061 195.62 228.442 194.159 227.638C193.566 227.312 193.179 226.925 193.04 226.559C192.833 226.019 193.023 225.556 193.668 225.292C194.307 225.028 195.588 225.011 197.602 225.505C203.406 226.928 209.738 221.528 213.846 218.025C214.88 217.142 215.781 216.377 216.499 215.86C217.914 214.846 218.982 214.17 219.837 213.906C221.15 212.582 222.351 212.204 224.064 211.662C224.448 211.54 224.86 211.409 225.258 211.275C226.84 210.738 228.269 209.969 228.914 209.358C228.987 209.29 229.044 209.23 229.087 209.176C228.863 209.119 228.465 209.111 227.857 209.165C224.678 209.449 215.312 209.04 212.031 208.881C213.286 210.426 215.48 213.434 213.414 213.343C212.659 213.309 212.071 212.539 211.318 211.548C210.034 209.861 208.173 207.415 204.656 207.795C203.619 207.909 202.986 208.23 202.656 208.676C202.398 209.028 202.315 209.477 202.367 209.969C202.372 210.045 202.384 210.125 202.398 210.204C203.69 211.105 204.807 212.048 205.619 212.858C206.17 213.409 206.591 213.909 206.844 214.304C207.23 214.912 207.267 215.403 206.889 215.693C206.682 215.852 206.383 215.895 205.988 215.795C204.653 215.46 202.974 213.875 202.06 212.156C201.821 211.707 201.631 211.25 201.509 210.798C199.244 209.258 196.483 207.892 193.946 207.659C190.878 207.378 187.754 207.196 185.504 207.247C186.41 207.906 187.324 208.614 188.217 209.338C192.125 212.511 195.659 216.102 196.438 217.994C196.722 218.684 196.611 219.093 196.179 219.272C195.088 219.721 189.535 214.844 185.643 211.426C184.106 210.074 182.836 208.96 182.254 208.52C181.953 208.29 181.765 208.063 181.68 207.838C181.487 207.33 181.708 206.952 182.268 206.693C182.396 206.634 182.546 206.583 182.717 206.534C182.359 206.301 182.006 206.082 181.663 205.875ZM218.295 215.832C217.928 216.076 217.525 216.357 217.082 216.675C216.377 217.181 215.502 217.925 214.494 218.786C210.235 222.42 203.664 228.022 197.364 226.476C195.577 226.036 194.517 226.022 194.046 226.215C194.009 226.232 193.966 226.181 193.975 226.203C194.031 226.354 194.262 226.553 194.642 226.763C195.946 227.482 198.651 228.024 202.233 227.215C206.412 226.272 209.488 224.993 211.869 223.36C214.232 221.738 215.917 219.752 217.317 217.383C217.664 216.801 217.988 216.286 218.295 215.832ZM203.096 211.963C203.832 213.213 204.963 214.326 205.923 214.721C205.701 214.406 205.358 214.011 204.915 213.568C204.414 213.071 203.798 212.522 203.096 211.963ZM206.267 214.877C206.267 214.9 206.255 214.92 206.278 214.903C206.315 214.874 206.304 214.872 206.267 214.877ZM183.915 207.341L183.864 207.346C183.341 207.406 182.944 207.485 182.702 207.593C182.742 207.63 182.793 207.67 182.859 207.721C183.447 208.167 184.739 209.301 186.302 210.673C189.588 213.562 194.125 217.545 195.458 218.246C194.634 216.468 191.293 213.124 187.586 210.11C186.373 209.128 185.126 208.181 183.915 207.341ZM182.64 207.525C182.617 207.48 182.597 207.44 182.614 207.486C182.62 207.497 182.628 207.511 182.64 207.525ZM195.736 218.352C195.761 218.354 195.781 218.354 195.798 218.346C195.878 218.315 195.818 218.332 195.736 218.352ZM166.785 201.108L167.515 201.227C167.814 199.168 168.203 197.182 168.615 195.318C168.311 195.279 168.007 195.236 167.7 195.193C163.999 194.679 160.32 194.168 158.291 194.478C155.425 194.912 152.147 195.671 150.383 196.514C149.908 196.742 149.562 196.963 149.391 197.171C149.331 197.245 149.314 197.304 149.351 197.352C149.479 197.517 149.786 197.699 150.311 197.892C152.741 198.796 160.093 200.006 166.785 201.108Z" fill="#141510" style="fill:#141510;fill:color(display-p3 0.0784 0.0824 0.0627);fill-opacity:1;"/>
</svg>
